<?xml version="1.0" encoding="UTF-8" standalone="no"?>
<!-- Created with matplotlib (http://matplotlib.org/) -->

<svg
   xmlns:dc="http://purl.org/dc/elements/1.1/"
   xmlns:cc="http://creativecommons.org/ns#"
   xmlns:rdf="http://www.w3.org/1999/02/22-rdf-syntax-ns#"
   xmlns:svg="http://www.w3.org/2000/svg"
   xmlns="http://www.w3.org/2000/svg"
   xmlns:sodipodi="http://sodipodi.sourceforge.net/DTD/sodipodi-0.dtd"
   xmlns:inkscape="http://www.inkscape.org/namespaces/inkscape"
   height="208.07558pt"
   version="1.1"
   viewBox="0 0 326.15455 208.07557"
   width="326.15454pt"
   id="svg245"
   sodipodi:docname="contour_troch.svg"
   inkscape:export-filename="/home/mikedh/robotics/pypocketing/docs/contour_troch.png"
   inkscape:export-xdpi="600"
   inkscape:export-ydpi="600"
   inkscape:version="0.92.3 (2405546, 2018-03-11)">
  <metadata
     id="metadata249">
    <rdf:RDF>
      <cc:Work
         rdf:about="">
        <dc:format>image/svg+xml</dc:format>
        <dc:type
           rdf:resource="http://purl.org/dc/dcmitype/StillImage" />
        <dc:title></dc:title>
      </cc:Work>
    </rdf:RDF>
  </metadata>
  <sodipodi:namedview
     pagecolor="#ffffff"
     bordercolor="#666666"
     borderopacity="1"
     objecttolerance="10"
     gridtolerance="10"
     guidetolerance="10"
     inkscape:pageopacity="0"
     inkscape:pageshadow="2"
     inkscape:window-width="3706"
     inkscape:window-height="2049"
     id="namedview247"
     showgrid="false"
     fit-margin-top="0"
     fit-margin-left="0"
     fit-margin-right="0"
     fit-margin-bottom="0"
     inkscape:zoom="4.0972221"
     inkscape:cx="234.06012"
     inkscape:cy="120.33503"
     inkscape:window-x="134"
     inkscape:window-y="55"
     inkscape:window-maximized="1"
     inkscape:current-layer="svg245" />
  <defs
     id="defs4"
     style="stroke-linecap:butt;stroke-linejoin:round">
    <style
       type="text/css"
       id="style2">
*{stroke-linecap:butt;stroke-linejoin:round;}
  </style>
    <clipPath
       id="pfcbbbb6b55"
       style="stroke-linecap:butt;stroke-linejoin:round">
      <rect
         height="266.112"
         width="357.12"
         x="57.599998"
         y="41.472"
         id="rect1575"
         style="stroke-linecap:butt;stroke-linejoin:round" />
    </clipPath>
    <clipPath
       id="clipPath2424"
       style="stroke-linecap:butt;stroke-linejoin:round">
      <rect
         height="266.112"
         width="357.12"
         x="57.599998"
         y="41.472"
         id="rect2422"
         style="stroke-linecap:butt;stroke-linejoin:round" />
    </clipPath>
    <clipPath
       id="clipPath2428"
       style="stroke-linecap:butt;stroke-linejoin:round">
      <rect
         height="266.112"
         width="357.12"
         x="57.599998"
         y="41.472"
         id="rect2426"
         style="stroke-linecap:butt;stroke-linejoin:round" />
    </clipPath>
  </defs>
  <path
     inkscape:connector-curvature="0"
     id="path214"
     style="fill:none;stroke:#1f77b4;stroke-width:0.74999999;stroke-linecap:square;stroke-linejoin:round;stroke-miterlimit:4;stroke-dasharray:none"
     d="m 222.01418,167.54006 8.94531,4.71421 1.69663,1.09888 1.57728,1.2642 1.44195,1.41671 1.29086,1.55572 1.12635,1.67866 0.95146,1.78362 0.76558,1.87096 0.57186,1.93888 0.37361,1.98656 0.17723,2.01379 0.57669,1.35782 1.97812,-0.41966 2.00093,-0.29034 2.01419,-0.1756 2.02155,-0.047 2.02051,0.0813 -3.35983,-4.59288 -0.83081,-1.84198 -0.57611,-1.93678 -0.31102,-1.99668 -0.0382,-2.02049 0.23398,-2.00726 0.49768,-1.95882 1.22744,-3.85399 -1.22344,-0.27596 -2.00027,0.29458 -2.01377,0.18094 -2.02152,0.0497 -2.02058,-0.0786 -2.01116,-0.20721 -1.99619,-0.32143 -1.97134,-0.45052 -1.93836,-0.57581 -1.89827,-0.69582 -1.85524,-0.80396 -1.80539,-0.54458 -3.61772,1.80886 -2.20083,-4.48225 -7.22626,3.55214 -1.87964,0.71958 3.59666,1.80655 14.25351,7.49822 1.66207,1.13306 1.49602,1.34493 1.30083,1.53459 1.08404,1.69469 0.8456,1.82532 0.59428,1.92175 0.33239,1.98392 0.35792,8.04445 0.59385,1.13007 1.82682,-0.84517 1.88461,-0.70711 1.93113,-0.56795 1.9678,-0.42367 1.99369,-0.27654 2.00837,-0.12949 2.01231,0.0156 2.00604,0.16052 1.98938,0.30548 3.91135,0.95295 25.34435,6.50249 6.03166,0.31166 -0.80212,-1.20608 -1.87611,0.14537 -1.97933,0.36028 -2.00975,-0.005 -1.9679,-0.40719 -1.84687,-0.79192 -1.65166,-1.14487 -1.41342,-1.43131 -1.76387,-0.20706 -1.97345,0.39499 -2.00839,0.0696 -1.98174,-0.33284 -1.87549,-0.72192 -1.6923,-1.08406 -1.44978,-1.3931 -9.48928,-10.41899 -1.1823,-1.62555 -0.83418,-1.82845 -0.45019,-1.95854 -0.05,-2.00887 0.35216,-1.97851 4.26807,-13.43064 -0.26547,-0.91347 -5.57491,2.31913 -1.92764,0.57963 -1.9654,0.43441 -1.99191,0.28774 -2.0072,0.14406 -2.01245,-3.2e-4 -2.0074,-0.14633 -1.99109,-0.2955 -1.9637,-0.44244 -1.92622,-0.58433 -1.87727,-0.72616 -1.81825,-0.86281 -1.75147,-0.99094 -1.7584,0.0127 -5.40208,2.70103 v 0"
     clip-path="url(#peec0ebc083)"
     transform="translate(-73.082727,-13.978765)" />
  <path
     inkscape:connector-curvature="0"
     id="path217"
     style="fill:none;stroke:#ff7f0e;stroke-width:0.74999999;stroke-linecap:square;stroke-linejoin:round;stroke-miterlimit:4;stroke-dasharray:none"
     d="m 127.22922,185.9335 12.39904,0.64067 1.8691,-0.64626 3.49676,-2.21361 0.63056,-0.68543 -18.39546,2.90463 -0.64243,4.96675 14.14344,0.73081 1.86507,-0.48849 25.64175,-16.23238 0.31572,-0.5573 -53.96306,8.48497 -0.44929,1.38992 0.26976,2.00453 0.10927,2.01963 -0.0556,2.0219 12.12295,0.62641 -0.0992,4.99482 16.0083,0.82717 1.78134,-0.7347 40.63177,-25.72174 0.25332,-1.04771 -1.69019,-1.07551 -1.68287,-0.92558 -73.23734,11.51559 -1.25241,0.67357 0.82923,1.82317 0.64251,1.89705 0.44887,1.95196 0.25111,1.98708 0.0509,2.00223 -0.14985,1.99727 -0.34907,1.97224 -0.54494,1.92735 18.00933,0.93056 -0.60041,4.96892 18.05908,0.93314 1.76728,-0.80913 50.93,-32.24099 -0.8571,-0.60044 -1.94273,-0.50971 -1.9009,-0.64913 -1.84787,-0.78794 -1.78485,-0.92197 -1.71235,-1.0505 -3.214,-2.31567 -85.34877,13.41996 0.630941,1.16363 1.420749,1.42075 1.32734,1.50667 1.11778,1.66786 0.8827,1.80322 0.63582,1.90422 0.37569,1.97223 0.10745,2.00486 -0.16285,2.001 -0.42655,1.96177 -0.68604,1.88688 -0.93318,1.77764 -1.1625,1.63676 -1.360483,1.47703 26.085343,1.34786 0.39368,5.02029 17.97533,0.92881 1.91624,-0.20588 54.08723,-34.208 1.84228,-0.76952 1.95852,-0.38696 1.99623,0.01 1.95465,0.40566 1.83799,0.78066 15.93934,8.36127 1.64275,1.13482 1.38411,1.43867 1.07088,1.6847 0.71514,1.86382 0.33095,1.96891 0.73962,17.98404 1.15429,-0.58154 3.03428,-2.6029 1.65904,-1.11547 1.75107,-0.96422 1.82941,-0.80548 1.89344,-0.64047 1.9427,-0.47046 1.9768,-0.29677 1.99546,-0.12075 1.99843,0.0583 1.98533,0.23647 3.89309,0.91124 25.16642,6.52685 1.97679,0.23624 47.93422,2.47683 -0.004,-0.82256 -2.69385,-2.95668 -1.70446,-0.35563 -3.90753,0.85441 -1.98352,0.12528 -1.87843,-0.64389 -1.49871,-1.30923 -1.34693,-1.47834 -1.78323,-0.10829 -3.90752,0.85442 -1.98634,0.0311 -1.84076,-0.74448 -1.45479,-1.36178 -1.34693,-1.47834 -1.47931,-1.06264 -5.87614,1.1838 -1.95248,-0.3637 -1.65644,-1.09443 -2.70213,-2.94877 -1.78223,-0.11144 -3.90752,0.85442 -1.98634,0.0325 -1.84125,-0.74333 -1.45531,-1.36119 -1.34693,-1.47834 -1.4783,-1.06578 -5.87606,1.18459 -1.95276,-0.36249 -1.65713,-1.09339 -9.43638,-10.34081 -1.20104,-1.58908 -0.53208,-1.91386 0.25728,-1.97068 4.24836,-13.33929 0.87455,-1.78489 1.48931,-1.31309 1.87953,-0.65238 89.87309,-19.65156 1.98079,-0.18119 1.89782,0.58301 1.53325,1.2652 21.54967,23.65447 1.05273,1.68575 0.3093,1.96228 -0.43119,1.94476 -9.72125,30.48609 -1.04767,1.6864 -1.62192,1.14618 -3.88,0.95008 -25.39891,5.5537 1.03814,0.18186 13.97899,0.68251 1.9794,-0.28571 3.88544,-0.9369 1.90707,-0.60229 3.68102,-1.55719 1.78447,-0.90299 3.37831,-2.13592 1.6148,-1.17988 2.9854,-2.65765 1.40257,-1.42566 2.51275,-3.10842 1.15335,-1.63385 1.973,-3.47621 0.87373,-1.79897 1.38054,-3.75119 0.57107,-1.91666 0.7512,-3.92603 0.25335,-1.98381 0.10178,-3.99603 -0.0725,-1.99854 -0.54889,-3.95946 -0.39704,-1.95997 -1.18442,-3.81778 -0.71091,-1.86906 -1.7885,-3.5748 -1.00578,-1.72827 -2.34512,-3.23698 -1.27377,-1.54133 -2.83951,-2.81328 -1.50773,-1.31326 -3.25854,-2.31494 -1.70142,-1.05014 -3.59111,-1.75519 -1.84967,-0.759 -3.82839,-1.14888 -1.94852,-0.44761 -3.96409,-0.51209 -1.99156,0.002 -77.4803,8.96321 -3.68566,1.53006 -22.02168,9.53817 -1.89416,0.63829 -1.9433,0.46795 -1.9772,0.29392 -1.9956,0.11758 -1.9983,-0.0603 -1.98502,-0.23898 -1.95585,-0.41497 -1.91097,-0.58797 -1.85134,-0.75498 -1.77718,-0.91607 -3.34639,-2.18928 -1.76904,0.5968 -14.32822,7.11754 -1.86674,0.71545 -1.92374,0.54463 -1.96489,0.36971 -1.98988,0.19451 -1.99929,0.016 -1.99252,-0.1636 -1.96984,-0.34039 -1.93202,-0.51274 -1.87925,-0.6811 -1.81193,-0.84419 -1.73059,-1.00079 -1.63381,-1.15238 -2.99884,-2.51851 -96.806877,15.22159 -0.514758,0.78622 9.82194,9.96929 1.034175,1.70744 0.673844,1.87902 0.286589,1.97553 -0.112125,1.99309 -0.506383,1.93102 -0.880439,1.79178 -1.219356,1.58094 -8.479476,8.49028 37.947926,1.96082 -0.95768,4.95046 19.99357,1.03309 1.95929,-0.0496 55.86177,-35.2655 1.95463,-0.36501 1.94095,0.43003 14.19218,7.4222 1.77316,0.92952 1.61267,1.16574 1.04309,1.69171 0.32342,1.96485 0.7128,18.00361 -0.49453,1.92599 -1.2069,1.57938 -3.34553,2.19446 -3.38314,2.14168 9.99679,0.51654 1.76518,-0.55114 7.39979,-6.74135 1.55522,-1.25888 1.68292,-1.08188 1.79461,-0.88462 1.88765,-0.66302 1.94786,-0.45684 1.98867,-0.22 2.00066,0.007 1.98758,0.2285 3.88933,0.94741 25.19285,6.5337 3.98335,0.30645 69.97751,3.61582 1.99028,-0.0944 1.98149,-0.28601 3.89366,-0.92568 3.7869,-1.29241 1.85383,-0.75592 3.56744,-1.81376 3.37053,-2.15698 1.6165,-1.18112 3.04202,-2.60054 2.76029,-2.89764 1.28354,-1.53644 2.34668,-3.24215 1.99123,-3.47182 1.6573,-3.64186 0.72555,-1.86593 1.11949,-3.84234 0.74262,-3.93195 0.25362,-1.9859 0.18623,-3.9977 -0.21486,-3.99598 -0.23332,-1.98838 -0.75743,-3.92982 -1.16016,-3.83024 -1.51298,-3.70402 -0.8562,-1.8097 -2.03507,-3.44622 -2.35145,-3.23747 -1.26778,-1.54946 -2.78705,-2.87207 -3.05482,-2.58471 -1.60434,-1.19756 -3.38338,-2.13757 -3.58262,-1.78323 -1.84601,-0.77482 -3.7908,-1.28367 -3.9045,-0.87907 -3.96856,-0.50985 -1.99621,-0.1172 -79.5495,9.2062 -25.71118,11.15841 -1.89444,0.64313 -1.95436,0.42801 -1.99152,0.19084 -2.00045,-0.0285 -1.98424,-0.25736 -1.939,-0.49315 -1.8753,-0.69727 -1.77841,-0.91694 -4.99322,-3.3365 -1.74737,0.24304 -16.11599,8.058 -1.8406,0.78462 -1.91393,0.583 -1.96918,0.3541 -1.99682,0.12492 -1.99838,-0.096 -1.97241,-0.33512 -1.92482,-0.54589 -1.84542,-0.77295 -1.74742,-0.97437 -1.62689,-1.16465 -1.47535,-1.35146 -1.36408,-1.46501 -1.59111,-0.78903 -106.797186,16.79244 -0.747653,1.36274 0.503052,1.79365 14.13137,14.17965 0.904352,1.7704 0.141659,1.98252 -0.643214,1.88031 -1.286623,1.52381 -12.740806,12.74081 -1.00979,1.58375 0.511951,1.51585 45.985218,2.37611 -0.93951,4.9514 23.97168,1.23865 11.83529,-7.47233 43.94301,-27.8179 1.72926,-0.11017 14.17308,7.42979 0.9729,1.43436 0.65216,15.98914 -0.74226,1.56681 -18.59128,11.76911 27.96696,1.44509 1.70824,-0.70558 8.87373,-8.08081 1.58496,-1.2175 1.76109,-0.94488 1.88885,-0.65187 1.96829,-0.34233 1.99741,-0.0241 1.97548,0.29461 17.42934,4.50632 11.61839,3.0071 75.90596,3.82776 3.94935,-0.6265 3.88115,-0.96085 3.78478,-1.28817 3.66091,-1.60608 1.7848,-0.90316 3.43125,-2.05421 3.24403,-2.33958 3.0278,-2.61382 2.78768,-2.86816 2.53266,-3.09499 2.25928,-3.29928 1.96955,-3.47956 1.66556,-3.63451 1.34951,-3.76304 0.57117,-1.91702 0.86617,-3.90426 0.53019,-3.96441 0.18129,-3.99584 -0.1674,-3.99615 -0.50744,-3.96681 -0.84372,-3.90865 -1.1738,-3.82209 -1.49528,-3.70779 -1.80587,-3.56657 -0.99944,-1.73272 -2.24067,-3.31257 -2.51529,-3.10988 -2.77867,-2.87725 -3.01774,-2.62493 -3.23013,-2.35775 -3.41901,-2.07353 -3.58301,-1.77428 -3.72094,-1.46221 -3.83182,-1.13953 -1.9454,-0.46546 -3.94621,-0.64915 -3.98773,-0.31037 -19.87079,2.28676 -59.61158,6.89609 -1.94718,0.37821 -25.68666,11.15462 -1.89863,0.6223 -1.97409,0.31176 -1.99847,-0.0141 -1.97018,-0.33208 -1.89174,-0.64149 -1.76514,-0.93444 -6.62933,-4.47956 -1.73401,0.0642 -19.69528,9.80886 -1.8998,0.61809 -1.97401,0.30699 -1.99761,-0.012 -1.97003,-0.33058 -1.89196,-0.6407 -1.76541,-0.93437 -1.59363,-1.20409 -2.74919,-2.9032 -1.34711,-1.47869 -1.79039,-0.21745 -112.633528,17.71011 -1.155295,1.01247 v 8.00122 l 5.628338,5.66989 9.901003,9.901 -1.019352,1.41443 -14.14429,14.14429 -0.365699,1.84883 v 6.00091 l 0.609953,1.42106 49.94099,2.58051 v 0"
     clip-path="url(#peec0ebc083)"
     transform="translate(-73.082727,-13.978765)" />
  <path
     inkscape:connector-curvature="0"
     id="path220"
     style="fill:none;stroke:#000000;stroke-width:0.74999999;stroke-linecap:square;stroke-linejoin:round;stroke-miterlimit:4;stroke-dasharray:none"
     d="m 202.32751,219.8136 28.85059,1.49075 9.65276,-8.79386 0.79121,-0.66306 0.84328,-0.59542 0.88959,-0.52371 0.92983,-0.44841 0.96369,-0.37006 0.99098,-0.28916 1.01148,-0.2063 1.02506,-0.12202 1.03164,-0.0369 1.03117,0.0485 1.02363,0.1335 1.00911,0.21761 28.69934,7.4431 75.45375,3.89879 3.76026,-0.54277 3.70379,-0.84626 3.62285,-1.14417 3.518,-1.43452 3.38993,-1.7154 3.23946,-1.98495 3.06762,-2.24141 2.87552,-2.48305 2.66444,-2.70831 2.43576,-2.91569 2.19101,-3.10381 1.93178,-3.27145 1.65981,-3.41749 1.37688,-3.54096 1.08485,-3.64105 0.78566,-3.71711 0.48129,-3.76863 0.17374,-3.79526 -0.13496,-3.79683 -0.44276,-3.77335 -0.74765,-3.72494 -1.0476,-3.65195 -1.34064,-3.55484 -1.62481,-3.43426 -1.89826,-3.29101 -2.15919,-3.12604 -2.40585,-2.94042 -2.63663,-2.73538 -2.85001,-2.5123 -3.04456,-2.27263 -3.21902,-2.01794 -3.37222,-1.74994 -3.50316,-1.47038 -3.61098,-1.18112 -3.69495,-0.88405 -3.75452,-0.58116 -3.78931,-0.27442 -80.88634,9.35723 -25.99718,11.29784 -0.97629,0.37647 -1.0044,0.29337 -1.02544,0.20823 -1.03927,0.12162 -1.0458,0.0342 -1.045,-0.0536 -1.03684,-0.14088 -1.02139,-0.22721 -0.99878,-0.31196 -0.96915,-0.3945 -0.9327,-0.47429 -0.8897,-0.55073 -6.99313,-4.74534 -19.96669,9.98335 -0.9214,0.41497 -0.95194,0.33908 -0.97626,0.26098 -0.99416,0.18115 -1.00555,0.10015 -1.01037,0.0185 -1.00854,-0.0633 -1.00013,-0.14467 -0.98514,-0.22509 -0.96371,-0.30403 -0.93596,-0.38099 -0.90208,-0.45544 -0.86229,-0.52692 -0.81683,-0.59494 -0.76605,-0.65905 -0.71022,-0.71886 -3.55713,-3.90457 -115.181603,18.11077 v 8.87358 l 15.72688,15.72688 -15.72688,15.72688 v 8.87358 l 74.551763,3.85218 56.62768,-35.84787 15.9582,8.36558 0.73429,18.00299 -19.37715,12.26661"
     clip-path="url(#peec0ebc083)"
     transform="translate(-73.082727,-13.978765)" />
  <path
     inkscape:connector-curvature="0"
     id="path223"
     style="fill:none;stroke:#008000;stroke-width:0.74999999;stroke-linecap:square;stroke-linejoin:round;stroke-miterlimit:4;stroke-dasharray:none"
     d="m 368.52416,199.00467 9.8421,-30.9029 -21.84164,-23.97496 -90.76407,19.84638 -4.37427,13.73462 9.7074,10.65554 8.14005,-1.7799 4.8541,5.32769 8.14005,-1.7799 4.85409,5.32768 8.14005,-1.77989 4.8541,5.32768 8.14005,-1.7799 4.00469,4.39541 8.14005,-1.7799 5.70351,6.25996 32.45974,-7.09761"
     clip-path="url(#peec0ebc083)"
     transform="translate(-73.082727,-13.978765)" />
  <defs
     id="defs243">
    <clipPath
       id="peec0ebc083"
       style="stroke-linecap:butt;stroke-linejoin:round">
      <rect
         height="266.112"
         width="357.12"
         x="57.599998"
         y="41.472"
         id="rect240"
         style="stroke-linecap:butt;stroke-linejoin:round" />
    </clipPath>
  </defs>
  <path
     inkscape:connector-curvature="0"
     id="path1552"
     style="fill:none;stroke:#1f77b4;stroke-width:0.74999999;stroke-linecap:square;stroke-linejoin:round;stroke-miterlimit:4;stroke-dasharray:none"
     d="m 260.33001,178.92847 -0.11567,-2.20682 -0.34571,-2.18265 -0.57197,-2.13454 -0.79197,-2.06307 -1.00329,-1.96897 -1.20362,-1.85332 -1.39075,-1.71734 -1.56265,-1.56255 -1.71743,-1.39065 -1.85338,-1.2035 -1.96904,-1.00316 -2.06311,-0.79184 -2.13459,-0.57185 -2.18266,-0.34557 -2.20684,-0.11552 -2.20681,0.1158 -2.18263,0.34584 -2.13451,0.57211 -2.06301,0.7921 -1.96892,1.00341 -1.85323,1.20373 -1.71726,1.39086 -1.56245,1.56275 -1.39054,1.71751 -1.20338,1.85346 -1.00305,1.9691 -0.79171,2.06317 -0.57171,2.13462 -0.34544,2.18268 -0.11538,2.20684 0.11593,2.20681 0.34599,2.18261 0.57223,2.13447 0.79223,2.06297 1.00354,1.96885 1.20384,1.85316 1.39097,1.71717 1.56285,1.56236 1.7176,1.39043 1.85353,1.20327 1.96917,1.00292 2.06321,0.79158 2.13465,0.57158 2.18271,0.3453 2.20685,0.11525 2.2068,-0.11608 2.18258,-0.34612 2.13444,-0.57237 2.06292,-0.79236 1.96879,-1.00365 1.85308,-1.20396 1.71708,-1.39108 1.56226,-1.56294 1.39033,-1.71769 1.20315,-1.85361 1.0028,-1.96923 0.79146,-2.06326 0.57144,-2.13469 0.34517,-2.18273 0.1151,-2.20685 -0.0937,-2.06867 -0.32177,-2.03795 -0.5452,-1.98374 -0.76166,-1.90667 -0.9688,-1.80762 -1.16443,-1.68772 -1.34646,-1.54828 -1.51298,-1.39086 -1.66224,-1.21717 -1.79267,-1.0291 -1.90292,-0.8287 -1.99183,-0.61812 -2.05853,-0.39963 -2.10232,-0.17556 -2.12278,0.0517 -2.11974,0.27969 -2.09326,0.50603 -2.04365,0.72831 -1.9715,0.94418 -1.87757,1.15136 -1.76291,1.34766 -1.62873,1.53104 -1.47651,1.69955 -1.30784,1.85143 -1.12455,1.9851 -0.92855,2.09915 -0.72196,2.19241 -0.50694,2.26389 -0.28577,2.31284 -0.0608,2.33876 0.16561,2.34139 0.39107,2.32068 0.61318,2.27685 0.82962,2.21038 1.03808,2.12192 1.23637,2.01241 1.42238,1.883 1.59412,1.73501 1.74978,1.57 1.88767,1.38966 2.00631,1.1959 2.1044,0.99073 2.18088,0.77628 2.23486,0.55482 2.26573,0.32866 2.27309,0.10018 2.25677,-0.12821 2.21691,-0.3541 2.15379,-0.57506 2.06804,-0.78877 1.96044,-0.99291 1.83204,-1.1853 1.68413,-1.36382 1.51816,-1.52655 1.33581,-1.67165 1.13548,-1.79905 0.76603,-1.61688 0.69231,-2.10668 0.4594,-2.13609 0.22593,-2.14098 -0.0104,-2.12116 -0.24643,-2.07513 -0.46595,-2.00588 -0.67582,-1.91458 -0.87385,-1.80253 -1.05802,-1.67116 -1.22653,-1.52218 -1.60699,-1.58855 -1.51568,-1.17614 -1.62963,-0.98104 -1.72061,-0.77938 -1.78954,-0.57027 -1.83587,-0.3561 -1.8593,-0.13931 -1.8598,0.0776 -1.83774,0.29109 -1.79395,0.49952 -1.7292,0.70122 -1.64444,0.8941 -1.54077,1.07624 -1.41951,1.24581 -1.28216,1.40117 -1.13033,1.54082 -0.9651,1.66397 -0.78781,1.7694 -0.60135,1.85522 -0.40784,1.9207 -0.20951,1.96527 -0.009,1.98862 0.19014,1.99089 0.38735,1.97276 0.58085,1.93464 0.91741,2.18841 0.98038,1.79098 1.14777,1.69312 1.30359,1.5791 1.4486,1.448 1.57796,1.30321 1.69018,1.14702 2.08562,1.13664 2.1878,0.89238 2.2547,0.64679 2.29139,0.3969 2.29791,0.14608 2.2746,-0.10213 2.21899,-0.3444 2.13162,-0.57765 2.02054,-0.79971 1.88384,-1.00541 1.72389,-1.19172 1.54359,-1.35587 1.34306,-1.49317 1.12285,-1.60208 0.90226,-1.68662 0.67476,-1.74392 0.52996,-2.05104 0.227,-1.8086 -0.0121,-1.78195 -0.25033,-1.72166 -0.46842,-1.64169 -0.67275,-1.53702 -0.86028,-1.41052 -1.03099,-1.26334 -1.18701,-1.09159 -1.32863,-0.88868 -1.43387,-0.68817 -1.51346,-0.47734 -1.56685,-0.25738 -1.59254,-0.0309 -1.59016,0.19104 -1.56776,0.41341 -1.50944,0.63904 -1.42676,0.84153 -1.32053,1.03127 -1.19263,1.20558 -1.04515,1.3626 -0.8784,1.51675 -0.79018,1.83301 -0.49261,1.68444 -0.29446,1.75325 -0.0902,1.79713 0.11705,1.81562 0.33777,1.80745 0.55665,1.76872 0.75033,1.70585 0.93196,1.62161 1.10133,1.51728 1.25632,1.3945 1.39506,1.25519 1.51589,1.10141 1.85557,1.05484 1.9566,0.82545 2.0177,0.60805 2.05859,0.36068 1.55622,0.081 2.06017,-0.15929 1.99817,-0.40038 1.90515,-0.62997 1.78303,-0.84425 1.63417,-1.03969 1.46135,-1.21313 1.26769,-1.36173 1.05663,-1.48314 0.83183,-1.57543 0.59721,-1.6371 0.35677,-1.66722 0.11465,-1.66531 -0.12501,-1.63142 -0.35808,-1.5661 -0.58053,-1.47043 -0.70728,-1.16259 -0.94561,-1.24608 -0.9832,-0.92619 -1.25479,-0.87109 -1.3664,-0.65729 -1.44842,-0.43077 -1.49944,-0.19548 -1.51854,0.0445 -1.50535,0.28493 -1.45999,0.52161 -1.38319,0.75036 -1.27614,0.96706 -1.14058,1.16784 -0.97878,1.34896 -0.79342,1.5071 -0.5095,1.43502 -0.35948,1.73784 -0.11978,1.80536 0.11943,1.82999 0.34356,1.806 0.59346,1.78014 0.83827,1.71929 1.07308,1.62435 1.12014,1.31786 1.27662,1.19933 1.6335,1.19758 1.78791,0.99691 1.66911,0.6918 1.74542,0.51169 1.80007,0.3227 1.83177,0.1192 1.83779,-0.0814 1.80117,-0.28205 1.70848,-0.47477 1.62049,-0.65543 1.51161,-0.8234 1.38361,-0.97626 1.23856,-1.11187 1.21906,-1.41213 1.00017,-1.53611 0.80173,-1.64428 0.55463,-1.70721 0.30175,-1.73516 0.0494,-1.51259 -0.19382,-1.68531 -0.4305,-1.60795 -0.65361,-1.49976 -0.85924,-1.3629 -1.04382,-1.20009 -1.20417,-1.01441 -1.33754,-0.80937 -1.44168,-0.58876 -1.51488,-0.35664 -1.55591,-0.11721 -1.5642,0.12516 -1.53964,0.36611 -1.4828,0.60129 -1.39471,0.8265 -1.12215,0.90057 -1.13075,1.22832 -1.07912,1.53127 -0.64765,1.33066 -0.53931,1.62812 -0.31412,1.71281 -0.0799,1.76619 0.15912,1.78738 0.3986,1.7761 0.63423,1.73259 0.86175,1.65766 1.0771,1.55268 1.27636,1.41955 1.45595,1.26061 1.61256,1.07872 1.74335,0.87707 1.84586,0.65929 1.43913,0.30629 1.95444,0.18033 1.96081,-0.0604 1.93463,-0.29971 1.87638,-0.5332 1.78713,-0.75671 1.66848,-0.96619 1.5225,-1.15784 1.35182,-1.32817 1.16177,-1.46984 0.95873,-1.57798 0.73425,-1.6703 0.4986,-1.73155 0.21412,-1.54188 0.021,-1.78676 -0.18569,-1.5306 -0.43885,-1.67975 -0.66202,-1.57714 -0.86966,-1.44499 -1.05867,-1.2847 -1.2257,-1.09761 -1.36543,-0.88846 -1.47493,-0.66134 -0.78477,-0.15983 -1.59198,-0.0795 -1.5849,0.16883 -1.5443,0.41222 -1.47144,0.64621 -1.36812,0.86665 -1.23666,1.0697 -1.07984,1.25192 -0.90088,1.41023 -0.70326,1.54213 -0.49081,1.64551 -0.2637,1.7166 0.0107,1.72773 0.24399,1.72829 0.47338,1.69743 0.69479,1.63624 0.90435,1.54632 1.09845,1.42973 1.27385,1.28897 1.42765,1.1269 1.55744,0.94672 1.6612,0.75187 1.9544,0.61544 1.78562,0.33042 1.80398,0.11378 1.79323,-0.10269 1.75373,-0.31524 1.68634,-0.52018 1.59233,-0.71397 1.47343,-0.89326 1.33175,-1.05499 0.87872,-0.92105 1.0046,-1.34582 0.80977,-1.43478 0.60544,-1.4967 0.39526,-1.5307 0.18289,-1.53636 -0.028,-1.51368 -0.23368,-1.46319 -0.4307,-1.38579 -0.61563,-1.2829 -0.78529,-1.15624 -0.93672,-1.00802 -1.06725,-0.84074 -1.17459,-0.65722 -1.25673,-0.46058 -1.31212,-0.25415 -1.17085,-0.027 -1.3289,0.1937 -1.28823,0.40894 -1.67626,0.80309 -1.10888,0.80635 -0.98385,0.98814 -0.83424,1.15131 -0.66281,1.29251 -0.47277,1.40886 -0.26774,1.49792 -0.0513,1.5578 0.18226,1.58642 0.40758,1.58138 0.61786,1.56428 0.66289,1.16242 0.92819,1.294 1.22916,1.34236 1.38145,1.17842 1.50815,0.99632 1.60716,0.79996 1.67702,0.59347 1.71684,0.3811 1.73648,0.16769 1.73169,-0.0436 1.69412,-0.25067 1.62832,-0.44942 1.53591,-0.63606 1.41894,-0.80705 1.27997,-0.95924 1.11855,-1.09228 1.04795,-1.35452 0.81653,-1.44888 0.57539,-1.50726 0.29691,-1.35931 0.093,-1.51349 -0.15146,-1.45876 -0.38286,-1.36689 -0.59563,-1.24062 -0.78479,-1.08348 -1.04942,-1.0113 -1.05337,-0.77865 -1.16109,-0.5619 -1.23351,-0.3311 -1.26893,-0.0919 -1.2665,0.14969 -1.22632,0.3878 -1.14804,0.61935 -1.03642,0.83144 -0.89696,1.02018 -0.72213,1.19263 -0.52595,1.33221 -0.31049,1.4393 -0.0811,1.51135 0.15664,1.54657 0.39677,1.5442 0.62097,1.49552 0.80808,1.39809 1.03035,1.30246 1.23595,1.17249 1.41959,1.01103 1.57644,0.8218 1.51101,0.54386 1.99126,0.43425 1.84596,0.14154 1.65141,-0.0868 1.63129,-0.28659 1.58381,-0.47929 1.50974,-0.66403 1.3849,-0.8295 1.30358,-1.07961 1.09313,-1.21785 0.86589,-1.32011 0.63969,-1.39119 0.45975,-1.46099 0.18409,-1.30245 -0.0504,-1.42211 -0.26842,-1.3411 -0.46927,-1.22987 -0.64903,-1.09168 -0.80444,-0.93026 -0.93282,-0.74965 -1.03212,-0.55415 -1.10095,-0.34817 -1.13855,-0.13618 -1.14472,0.0773 -1.1199,0.28806 -1.07089,0.49206 -0.99732,0.68688 -0.8919,0.86833 -0.65574,0.90127 -0.55917,1.13159 -0.37915,1.23741 -0.18672,1.31555 0.0141,1.36478 0.21941,1.38437 0.42498,1.37409 0.62679,1.33424 0.82087,1.26557 1.0033,1.16936 1.17042,1.04736 1.31869,0.90177 1.44491,0.73528 1.37603,0.48015 1.6189,0.31088 1.64626,0.0949 1.64019,-0.12275 1.61733,-0.34015 1.56151,-0.55257 1.47247,-0.75489 1.35203,-0.94189 1.20282,-1.1087 1.01862,-1.24838 0.81574,-1.34751 0.60212,-1.4237 0.37734,-1.46566 0.14818,-1.47169 -0.0792,-1.44171 -0.21875,-0.87304 -0.5909,-1.08049 -0.75855,-0.92431 -0.89767,-0.74581 -1.00546,-0.55003 -0.96303,-0.30341 -1.48976,-0.17039 -1.10595,0.059 -1.08244,0.26879 -1.02671,0.47049 -0.94069,0.65921 -0.82705,0.8305 -0.65797,1.01135 -0.49053,1.12609 -0.33772,1.34738 -0.11188,1.41019 0.1169,1.43453 0.34257,1.42142 0.60337,1.52699 0.75187,1.31659 0.93894,1.20928 1.10538,1.07483 1.02283,0.70072 1.36605,0.68733 1.45011,0.47361 1.50575,0.22285 1.50598,0.016 1.61846,-0.21523 1.53926,-0.44647 1.4227,-0.65885 1.2726,-0.8471 1.09334,-1.00653 0.8898,-1.13311 0.66729,-1.22348 0.37644,-1.15786 0.13939,-1.26696 -0.10662,-1.20762 -0.33583,-1.10291 -0.58673,-1.29077 -0.63478,-0.84311 -0.76904,-0.67881 -0.87341,-0.49216 -0.94419,-0.2886 -0.97747,-0.0633 -0.96435,0.18479 -0.91818,0.39887 -0.83113,0.60797 -0.70588,0.79895 -0.55319,0.95976 -0.37416,1.09202 -0.14447,1.09692 0.0467,1.27554 0.26911,1.29498 0.48754,1.2726 0.63282,1.17477 0.85129,1.1038 1.07268,0.99994 1.24711,0.84937 1.39358,0.66946 1.50721,0.46537 1.42473,0.21528 1.77834,0.0123 1.61159,-0.20833 1.40626,-0.39799 1.47409,-0.65847 1.34656,-0.86166 1.18514,-1.04024 0.89319,-1.0571 0.77848,-1.27286 0.54718,-1.34312 0.35656,-1.54722 0.10118,-1.44698 -0.14229,-1.41031 -0.34044,-1.17736 -0.58731,-1.18349 -0.78056,-1.0243 -0.84326,-0.75901 -0.95199,-0.57934 -1.03174,-0.37372 -1.07233,-0.17191 -1.08642,0.0353 -1.06373,0.26229 -1.00859,0.46309 -0.92248,0.65321 -0.8074,0.8279 -0.66451,0.98588 -0.48406,1.14304 -0.29845,1.24123 -0.13402,1.5632 0.0926,1.29884 0.30532,1.31231 0.51885,1.29205 0.74347,1.24618 0.94414,1.15725 1.12419,1.03534 1.28358,0.88605 1.42035,0.70836 1.52762,0.50655 1.77856,0.33189 1.64069,0.0882 1.64012,-0.1533 1.60242,-0.37291 1.53067,-0.58435 1.42648,-0.7824 1.29233,-0.96207 1.11956,-1.11266 0.92946,-1.23623 0.84192,-1.52345 0.53486,-1.45207 0.31025,-1.49135 0.081,-1.49494 -0.15101,-1.45589 -0.38136,-1.36651 -0.58733,-1.25921 -0.77463,-1.12049 -0.83258,-0.84824 -1.07819,-0.74377 -1.17362,-0.53025 -1.09593,-0.26702 -1.68243,-0.12414 -1.25526,0.14679 -1.20908,0.37626 -1.12737,0.59619 -1.01196,0.8011 -0.76617,0.87864 -0.69661,1.15149 -0.49755,1.28338 -0.26257,1.38627 -0.0336,1.44274 0.20111,1.46261 0.43571,1.44554 0.67217,1.39665 0.89843,1.31102 1.19252,1.29549 1.24926,1.00502 1.40704,0.83176 1.53604,0.6355 1.63291,0.42101 1.70046,0.19303 1.72182,-0.0474 1.51489,-0.24629 1.65094,-0.49856 1.56121,-0.71609 1.43873,-0.91659 1.28587,-1.09473 1.09744,-1.23963 0.8957,-1.35727 0.67878,-1.44158 0.4705,-1.51256 0.25823,-1.55901 0.0263,-1.55144 -0.2056,-1.49951 -0.42974,-1.40216 -0.63586,-1.2809 -0.82232,-1.12372 -0.97331,-0.94594 -1.09365,-0.74786 -1.18122,-0.53403 -1.09355,-0.27373 -1.24524,-0.0723 -1.22523,0.15611 -1.16989,0.37773 -1.08088,0.58711 -0.96064,0.77922 -1.18997,1.31935 -0.60133,1.10824 -0.40511,1.21971 -0.17703,1.3026 0.0454,1.34261 0.27623,1.34646 0.50628,1.31163 0.71423,1.25269 0.90854,1.16919 1.10667,1.02889 1.26219,0.87144 1.39056,0.69232 1.48888,0.49615 1.55494,0.2879 1.59107,0.0727 1.5805,-0.14267 1.54645,-0.35539 1.48168,-0.57862 1.38731,-0.77209 1.26433,-0.94748 1.11579,-1.10109 0.94547,-1.22923 0.75766,-1.3289 0.55706,-1.39777 0.3487,-1.4343 0.13771,-1.43777 -0.0707,-1.40825 -0.2714,-1.34663 -0.45951,-1.2546 -0.63045,-1.13456 -0.78011,-0.98962 -1.13343,-1.04338 -1.04141,-0.68162 -1.11317,-0.48625 -1.15352,-0.28167 -1.16138,-0.0729 -1.13644,0.13491 -1.07916,0.33665 -0.99087,0.52728 -0.87359,0.70208 -0.73015,0.85667 -0.56397,0.98715 -0.37907,1.0902 -0.17995,1.16319 0.0302,1.20423 0.25907,1.20927 0.46951,1.17822 0.83067,1.45355 0.84658,0.98754 1.02595,0.86692 1.18514,0.71878 1.3199,0.54651 1.4266,0.35412 1.50222,0.14617 1.54456,-0.0723 1.55215,-0.29601 1.52441,-0.51938 1.46163,-0.73688 1.36227,-0.94644 1.223,-1.14398 1.06217,-1.30745 0.87705,-1.44419 0.67158,-1.55027 0.45589,-1.63737 0.22675,-1.68547 -0.009,-1.69708 -0.24466,-1.67138 -0.47523,-1.60854 -0.6981,-1.50679 -0.89624,-1.35752 -1.06686,-1.19139 -1.21628,-0.99808 -1.18256,-0.7022 -1.41197,-0.55511 -1.45528,-0.31183 -1.45999,-0.064 -1.25824,0.16579 -1.34041,0.41803 -1.38843,0.70071 -1.02547,0.71455 -0.89498,0.86545 -0.74389,0.99736 -0.57497,1.10748 -0.38076,1.19713 -0.1699,1.25974 0.0324,1.28806 0.23745,1.28792 0.45138,1.25556 0.65352,1.19323 0.84048,1.10488 1.01375,0.99109 1.18579,0.85099 1.32358,0.69026 1.43283,0.513 1.51645,0.32207 1.7355,0.14156 1.57316,-0.0903 1.57903,-0.30128 1.55766,-0.51403 1.50847,-0.72476 1.4236,-0.92058 1.3119,-1.10329 1.16374,-1.27892 1.00165,-1.42175 0.82164,-1.54025 0.62651,-1.63273 0.41909,-1.69409 0.20473,-1.725 -0.0119,-1.72637 -0.22668,-1.69754 -0.43553,-1.63907 -0.63562,-1.56612 -0.82679,-1.47913 -1.00085,-1.3447 -1.15165,-1.1774 -1.2814,-0.99974 -1.38758,-0.79849 -1.46337,-0.58117 -1.50552,-0.36 -1.51578,-0.13824 -1.495,0.0826 -1.43639,0.29678 -1.34677,0.51882 -1.23546,0.71145 -1.09836,0.88677 -0.93814,1.04137 -0.75788,1.17219 -0.63681,1.43527 -0.38523,1.34499 -0.15399,1.39832 0.0751,1.41628 0.31027,1.39937 0.53004,1.35085 0.74404,1.27052 0.94773,1.15785 1.12775,1.0233 1.29098,0.87663 1.43402,0.68929 1.5457,0.48646 1.62537,0.27505 1.67484,0.0547 1.69317,-0.17047 1.68002,-0.39591 1.63418,-0.61552 1.54669,-0.82079 1.44104,-1.03357 1.31202,-1.21945 1.15831,-1.38563 0.98291,-1.5289 0.69123,-1.43971 0.60012,-1.72667 0.39808,-1.78325 0.17356,-1.81467 -0.0618,-1.81316 -0.28548,-1.77896 -0.50205,-1.714 -0.70733,-1.61958 -0.89704,-1.49592 -1.06797,-1.33196 -1.22603,-1.16876 -1.35746,-1.004 -1.45546,-0.80173 -1.52435,-0.58776 -1.56277,-0.36627 -1.56918,-0.13429 -1.53034,0.0961 -1.47121,0.31185 -1.38383,0.51855 -1.2672,0.71272 -1.12528,0.88727 -0.96115,1.03948 -0.77761,1.16725 -0.4961,1.11254 -0.35075,1.34153 -0.13143,1.37884 0.10029,1.89477 0.31551,1.34967 0.52934,1.29418 0.73335,1.20947 0.8141,0.9633 1.09822,0.96987 1.2498,0.80992 1.37747,0.63073 1.47958,0.43373 1.55239,0.2254 1.59497,0.0106 1.61371,-0.21505 1.59605,-0.44811 1.54057,-0.65824 1.45668,-0.85771 1.34167,-1.03562 1.20056,-1.18858 1.05229,-1.34306 0.88483,-1.47745 0.69999,-1.58596 0.50099,-1.66277 0.29368,-1.71103 0.0821,-1.7299 -0.1344,-1.71835 -0.34789,-1.67508 -0.61958,-1.79817 -0.75691,-1.47798 -0.92117,-1.34803 -1.06495,-1.19716 -1.18563,-1.02857 -1.2811,-0.84569 -1.54821,-0.75789 -1.4305,-0.46846 -1.4407,-0.25646 -1.42882,-0.0533 -1.38884,0.14562 -1.32171,0.33661 -1.22884,0.51592 -1.10318,0.69038 -1.06598,0.95184 -0.86125,1.10032 -0.64011,1.21299 -0.40758,1.2898 -0.16646,1.3308 0.0919,1.33359 0.35414,1.44019 0.34396,0.81727 0.70654,1.12987 0.9016,0.99242 1.07263,0.82855 1.21625,0.64222 1.3298,0.43784 1.41785,0.22784 1.47497,0.008 1.49375,-0.22158 1.47829,-0.45161 1.42895,-0.67666 1.34683,-0.89198 1.23362,-1.09295 1.09165,-1.27527 0.82668,-1.45481 0.62836,-1.57354 0.41534,-1.66129 0.19212,-1.71644 -0.0366,-1.73791 -0.26582,-1.72531 -0.4908,-1.67889 -0.70671,-1.59957 -0.90889,-1.48893 -1.09296,-1.34913 -1.25485,-1.18296 -1.39083,-0.99378 -1.32835,-0.70413 -1.57161,-0.53389 -1.65048,-0.32755 -1.47041,-0.0666 -1.61677,0.16108 -1.54467,0.3868 -1.4395,0.59989 -1.30332,0.79567 -1.13879,0.96974 -0.94918,1.11806 -0.73837,1.23709 -0.44564,1.17655 -0.2661,1.36846 -0.0158,1.37731 0.19551,1.19984 0.38794,1.14833 0.77054,1.4887 0.77332,0.94975 0.92567,0.81691 1.05853,0.66353 1.16917,0.49245 1.25522,0.30689 1.31645,0.0939 1.34933,-0.10721 1.35854,-0.3098 1.32992,-0.52276 1.27041,-0.72808 1.18464,-0.9177 1.07303,-1.09396 0.9376,-1.25338 0.76595,-1.41024 0.65052,-1.69139 0.37739,-1.5867 0.17616,-1.64989 -0.0326,-1.68456 -0.24484,-1.68981 -0.46669,-1.66219 -0.76004,-1.80912 -0.87948,-1.51764 -1.06126,-1.40243 -1.22774,-1.25979 -1.36976,-1.09801 -1.48808,-0.91769 -1.58374,-0.70477 -1.63396,-0.49073 -1.6597,-0.27644 -1.90129,-0.0697 -1.66692,0.16444 -1.61066,0.37393 -1.52553,0.57411 -1.40311,0.76163 -1.25229,0.93006 -1.08939,1.0761 -0.90747,1.1982 -0.70803,1.29455 -0.49818,1.36148 -0.27142,1.39854 -0.0371,1.22117 0.17054,1.36467 0.38209,1.306 0.65907,1.3709 0.72824,1.14246 0.90248,1.00891 1.0568,0.85204 1.04702,0.58239 1.29576,0.4813 1.37303,0.27438 1.42079,0.0585 1.43787,-0.16469 1.42148,-0.3951 1.37225,-0.61808 1.29736,-0.84573 1.18734,-1.03731 1.05196,-1.21137 0.89397,-1.36459 0.79654,-1.66037 0.50838,-1.56785 0.3028,-1.65652 0.0861,-1.7157 -0.13339,-1.73526 -0.35357,-1.7241 -0.57016,-1.68236 -0.79411,-1.60301 -0.98929,-1.49848 -1.16699,-1.36842 -1.32218,-1.21274 -1.45337,-1.03689 -1.55854,-0.84494 -1.63576,-0.64072 -1.68571,-0.42917 -1.73167,-0.22295 -1.72037,-0.003 -1.68432,0.21249 -1.61968,0.42026 -1.52676,0.61702 -1.22724,0.70334 -1.26229,0.9582 -1.0958,1.09721 -0.91191,1.19588 -0.6977,1.29165 -0.48973,1.34851 -0.27649,1.37579 -0.0622,1.37309 0.14908,1.34067 0.35505,1.27828 0.5031,1.22561 0.68566,1.11753 0.85135,0.98512 1.00314,0.82238 1.12686,0.64123 1.2247,0.43667 1.28828,0.23608 1.32746,0.0308 1.33391,-0.18748 1.30821,-0.40058 1.25368,-0.60168 1.17193,-0.79255 1.06477,-0.96953 0.93451,-1.14248 0.78152,-1.2884 0.68531,-1.52613 0.41407,-1.45617 0.2103,-1.52718 0.0107,-1.56466 -0.20272,-1.57331 -0.46086,-1.75394 -0.6121,-1.50652 -0.79691,-1.42723 -0.97166,-1.3206 -1.12485,-1.19353 -1.2583,-1.04692 -1.54678,-0.98183 -1.64724,-0.75425 -1.71114,-0.51527 -1.74033,-0.26822 -1.75956,-0.0163 -1.71861,0.22308 -1.64094,0.45237 -1.50825,0.66541 -1.35979,0.85454 -1.18452,1.01725 -0.98483,1.15094 -0.76666,1.25076 -0.53976,1.31319 -0.30244,1.32658 -0.0501,1.31174 0.17555,1.26086 0.34596,1.04568 0.57889,1.06159 1.14288,1.46983 0.93351,0.70962 1.04282,0.51603 1.11996,0.30891 1.1634,0.0935 1.17226,-0.12947 1.14258,-0.36013 1.08005,-0.56102 0.98957,-0.74766 0.87361,-0.91743 0.73507,-1.06713 0.57721,-1.19402 0.34377,-1.15915 0.19468,-1.37281 -0.005,-1.66932 -0.21441,-1.21352 -0.51831,-1.48457 -0.74746,-1.40965 -0.95926,-1.29963 -1.14878,-1.15809 -1.31176,-0.98913 -1.44465,-0.79738 -1.54461,-0.58778 -1.60951,-0.3656 -1.63801,-0.13629 -1.62951,0.0946 -1.58413,0.32151 -1.20209,0.45713 -1.51062,0.89452 -1.21581,0.97438 -1.03531,1.11823 -0.83398,1.23148 -0.61664,1.31125 -0.38846,1.35535 -0.15496,1.3623 0.0782,1.3314 0.30506,1.26271 0.46815,1.03918 0.74693,0.96968 0.90361,0.77772 1.44303,0.85939 1.01834,0.34523 1.0597,0.14509 1.06919,-0.0605 1.04013,-0.28249 0.96442,-0.51074 0.85173,-0.72557 0.72096,-0.8863 0.56684,-1.02442 0.3932,-1.13659 0.20437,-1.22009 0.0173,-1.52508 -0.20015,-1.26333 -0.40776,-1.25699 -0.61253,-1.21803 -0.80935,-1.14721 -0.9933,-1.04606 -1.16633,-0.90914 -1.62471,-0.91153 -1.45101,-0.54959 -1.53024,-0.351 -1.5769,-0.14062 -1.58939,0.0713 -1.56852,0.28291 -1.50967,0.48745 -1.41799,0.67954 -1.29811,0.85492 -1.15243,1.0092 -0.98464,1.13865 -0.91425,1.41627 -0.61676,1.36206 -0.40294,1.40436 -0.1891,1.41876 0.025,1.39947 0.23413,1.34676 0.43545,1.26006 0.63294,1.12402 0.77951,0.97302 0.91642,0.80439 1.02872,0.60698 1.10433,0.402 1.14671,0.18833 1.15517,-0.0295 1.00054,-0.23883 1.06589,-0.46986 0.97261,-0.6663 0.84993,-0.84544 0.94372,-1.29475 0.53147,-1.09909 0.30076,-1.08452 0.13624,-1.30135 -0.0791,-1.3454 -0.29931,-1.35518 -0.51886,-1.33027 -0.74108,-1.26679 -0.95082,-1.16887 -1.12342,-1.06838 -1.28812,-0.9148 -1.43058,-0.72824 -1.53489,-0.5313 -1.60715,-0.32033 -1.64551,-0.10054 -1.64832,0.12262 -1.61167,0.34263 -1.54055,0.55378 -1.44087,0.75235 -1.33441,0.94465 -1.18678,1.11261 -1.01241,1.25479 -0.80679,1.35858 -0.59488,1.43658 -0.37287,1.48057 -0.14619,1.48933 0.0845,1.46093 0.31435,1.3919 0.50816,1.28712 0.68993,1.15634 0.86919,0.98608 1.00608,0.80313 1.11271,0.60103 1.18643,0.38472 1.22541,0.15954 1.22468,-0.10369 1.18666,-0.32963 1.36344,-0.65032 1.02355,-0.69973 0.89367,-0.88822 0.73529,-1.05462 0.49249,-1.06602 0.3507,-1.31553 0.132,-1.39082 -0.0962,-1.43097 -0.32829,-1.4349 -0.49451,-1.24637 -0.76754,-1.33643 -1.08921,-1.3836 -1.04593,-0.99212 -1.34284,-0.9537 -1.48189,-0.76611 -1.58985,-0.55905 -1.66408,-0.3376 -1.70274,-0.10724 -1.70389,0.12625 -1.66446,0.35624 -1.60274,0.58103 -1.50814,0.79476 -1.38022,0.99149 -1.22251,1.16638 -1.03873,1.31494 -0.8211,1.4222 -0.59758,1.50211 -0.36401,1.5462 -0.12604,1.55326 0.11624,1.52116 0.34596,1.45182 0.55867,1.34681 0.65607,1.07548 0.91605,1.04266 1.06163,0.85287 1.17568,0.6427 1.25546,0.41738 1.29897,0.18243 1.30498,-0.0587 1.26856,-0.323 1.22229,-0.46316 1.12802,-0.68298 1.00011,-0.88586 0.84157,-1.06673 0.65611,-1.22095 0.44646,-1.34657 0.20358,-1.4529 -0.0342,-1.50135 -0.2769,-1.51197 -0.51937,-1.4842 -0.7559,-1.41791 -0.97729,-1.31592 -1.17933,-1.18279 -1.20549,-0.92144 -1.50373,-0.84933 -1.62323,-0.63627 -1.70788,-0.40721 -1.75566,-0.1678 -1.76537,0.0761 -1.73684,0.31837 -1.67543,0.55465 -1.58291,0.78066 -1.45466,0.98951 -1.29489,1.17621 -1.10739,1.33602 -0.89664,1.46485 -0.66773,1.55937 -0.4129,1.60505 -0.16694,1.61683 0.0805,1.59254 0.32189,1.52958 0.55076,1.42928 0.76069,1.29459 0.94715,1.12854 0.97954,0.82355 1.22179,0.71374 1.3121,0.48094 1.36485,0.237 1.37878,-0.012 1.35358,-0.26005 1.43749,-0.54035 1.07624,-0.60177 0.97101,-0.78332 0.84699,-0.93786 0.70238,-1.07389 0.5399,-1.18869 0.36265,-1.27993 0.17406,-1.34574 -0.0273,-1.38486 -0.2822,-1.57611 -0.4583,-1.38326 -0.65268,-1.33302 -0.83975,-1.2553 -1.01516,-1.15097 -1.17197,-1.02469 -1.30976,-0.8777 -1.42583,-0.71287 -1.52192,-0.53378 -1.58696,-0.34248 -1.62227,-0.14402 -1.62963,0.0573 -1.60891,0.25752 -1.56056,0.45281 -1.49213,0.64178 -1.40412,0.82246 -1.28454,0.9859 -1.14246,1.13088 -0.9828,1.25594 -0.80698,1.35773 -0.61836,1.43417 -0.42059,1.4837 -0.2175,1.50525 0.003,1.49499 0.23306,1.62483 0.40879,1.37055 0.59109,1.27604 0.76389,1.1517 0.91161,1.00897 1.03811,0.84697 1.14086,0.66883 1.21787,0.47801 1.26744,0.25455 1.28534,0.0468 1.27434,-0.15862 1.2349,-0.36033 1.1678,-0.55445 1.48476,-0.97453 0.94512,-0.90367 0.79925,-1.06143 0.6274,-1.20327 0.44748,-1.30657 0.2546,-1.38397 0.0525,-1.43388 -0.15491,-1.4552 -0.36601,-1.44699 -0.58389,-1.40531 -0.88644,-1.50921 -0.98166,-1.24864 -1.1559,-1.12468 -1.31228,-0.97445 -1.44123,-0.80882 -1.54591,-0.62682 -1.62429,-0.43198 -1.67482,-0.22807 -1.69712,-0.019 -1.6863,0.19066 -1.64596,0.39651 -1.57742,0.59454 -1.49548,0.78637 -1.38489,0.96444 -1.24904,1.12519 -1.09133,1.26552 -0.90679,1.37567 -0.71457,1.4644 -0.51161,1.52556 -0.30182,1.5579 -0.0893,1.56069 0.12762,1.53212 0.33808,1.47199 0.52732,1.38242 0.70106,1.26729 0.87339,1.12471 1.01917,0.96205 1.13781,0.78411 1.23054,0.59132 1.29554,0.38742 1.33152,0.17636 1.16962,-0.0384 1.3132,-0.25031 1.26026,-0.45764 1.62579,-0.86751 1.06025,-0.8413 0.9265,-1.00963 0.77022,-1.1581 0.58726,-1.29264 0.38621,-1.40021 0.18068,-1.46927 -0.0327,-1.50913 -0.24992,-1.51896 -0.47138,-1.49726 -0.68639,-1.4441 -0.88809,-1.36328 -1.06892,-1.27524 -1.08873,-0.99906 -1.38963,-0.99352 -1.52015,-0.81831 -1.62503,-0.62667 -1.70224,-0.42233 -1.75026,-0.20925 -1.76839,0.008 -1.75314,0.22606 -1.71201,0.44035 -1.64711,0.64874 -1.55313,0.84631 -1.43229,1.02925 -1.28684,1.19393 -1.11725,1.33542 -0.92356,1.44715 -0.72121,1.5353 -0.50831,1.59444 -0.28903,1.62337 -0.0626,1.6206 0.15639,1.58639 0.36738,1.52132 0.56419,1.41754 0.76122,1.28916 0.92754,1.14178 1.07173,0.97264 1.19095,0.78505 1.28291,0.58267 1.34579,0.36942 1.37811,0.13321 1.38668,-0.022 1.36444,-0.24364 1.31144,-0.46056 1.22856,-0.6685 1.11732,-0.86333 0.97971,-1.04121 0.80528,-1.21833 0.62023,-1.35043 0.41958,-1.4541 0.20585,-1.529 -0.0173,-1.57345 -0.24345,-1.58623 -0.46937,-1.56741 -0.59866,-1.34112 -0.88947,-1.45581 -1.08868,-1.3472 -1.27081,-1.21199 -1.43231,-1.0528 -1.57006,-0.87273 -1.68138,-0.67531 -1.7537,-0.464 -1.81353,-0.24486 -1.84217,-0.0191 -1.83909,0.20885 -1.80422,0.4346 -1.73815,0.65372 -1.63858,0.8669 -1.5115,1.04987 -1.35898,1.22147 -1.18377,1.37049 -0.98789,1.49441 -0.77744,1.5892 -0.55602,1.65367 -0.32606,1.68496 -0.0848,1.67173 0.14344,1.6367 0.3645,1.57026 0.57409,1.47371 0.76816,1.34896 1.06577,1.35994 1.10152,1.06544 1.23448,0.85887 1.33625,0.65047 1.40814,0.42952 1.44866,0.20029 1.45687,-0.0328 1.43123,-0.26987 1.36827,-0.51245 1.27909,-0.72877 1.16003,-0.93059 1.01065,-1.11706 0.83857,-1.27824 0.64638,-1.41329 0.43713,-1.52035 0.19201,-1.40366 -0.002,-1.6518 -0.23683,-1.66482 -0.47096,-1.64504 -0.69993,-1.59288 -0.89705,-1.49867 -1.08878,-1.38371 -1.29241,-1.25352 -1.46904,-1.09355 -1.61745,-0.90929 -1.73895,-0.7058 -1.83107,-0.487 -1.89192,-0.25714 -1.91947,-0.004 -2.15076,0.25627 -1.86755,0.47319 -1.7892,0.70468 -1.67937,0.92046 -1.54191,1.11621 -1.37846,1.29103 -1.1917,1.44119 -0.97597,1.5566 -0.754,1.64656 -0.54305,1.72729 -0.26294,1.54893 -0.0421,1.7623 0.1931,1.71801 0.41925,1.64163 0.71579,1.74521 0.84118,1.42246 1.01756,1.26356 1.17001,1.08181 1.29563,0.88077 1.392,0.66438 1.45775,0.4322 1.48541,0.17832 1.48218,-0.0577 1.44622,-0.29052 1.37803,-0.51635 1.27927,-0.72971 1.15216,-0.92651 0.9992,-1.10334 0.80952,-1.27629 0.61223,-1.40109 0.40061,-1.4963 0.17844,-1.5609 -0.0499,-1.5938 -0.27986,-1.59454 -0.5533,-1.73742 -0.72436,-1.47998 -0.93525,-1.39038 -1.13086,-1.27214 -1.30793,-1.12792 -1.46307,-0.96054 -1.59326,-0.77329 -1.6984,-0.56321 -1.99917,-0.37945 -1.81691,-0.1059 -1.82154,0.12101 -1.79372,0.34959 -1.73446,0.56892 -1.64559,0.77666 -1.52889,0.9697 -1.38378,1.14255 -1.21433,1.29163 -1.02831,1.4168 -0.82727,1.51462 -0.61519,1.58335 -0.39626,1.62181 -0.20343,1.86638 0.05,1.64662 0.27212,1.58519 0.47834,1.50509 0.67129,1.39721 0.8472,1.26371 1.00274,1.10724 1.1349,0.93087 1.24595,0.72589 1.31797,0.5146 1.36161,0.30051 1.3789,0.0824 1.36446,-0.14248 1.31903,-0.35658 1.24458,-0.56089 1.14268,-0.75242 1.01541,-0.92746 0.86535,-1.08271 0.69554,-1.21522 0.50935,-1.32253 0.31048,-1.40264 0.10286,-1.45412 -0.1166,-1.81081 -0.32631,-1.44011 -0.47446,-1.22754 -0.75046,-1.33202 -0.93742,-1.23591 -1.10929,-1.1156 -1.26302,-0.97336 -1.39592,-0.81179 -1.5056,-0.63387 -1.59015,-0.44283 -1.64802,-0.24213 -1.67819,-0.0354 -1.68008,0.17369 -1.6536,0.38127 -1.59919,0.58361 -1.51773,0.77702 -1.41063,0.95797 -1.27972,1.1231 -1.12724,1.26931 -0.95592,1.39386 -0.76872,1.49432 -0.569,1.56871 -0.36034,1.61548 -0.1355,1.63887 0.11585,1.64047 0.31185,1.58798 0.51401,1.51351 0.70461,1.4121 0.88009,1.2855 1.03714,1.1359 1.17275,0.96591 1.2843,0.77855 1.36956,0.57718 1.42678,0.36543 1.45468,0.14717 1.45252,-0.0736 1.42013,-0.29277 1.35783,-0.50622 1.26656,-0.70992 1.14777,-0.89994 1.00343,-1.07258 0.83606,-1.22441 0.64856,-1.35238 0.44433,-1.45381 0.22704,-1.52649 6.9e-4,-1.56876 -0.23048,-1.57948 -0.46212,-1.55808 -0.6898,-1.50464 -0.91246,-1.4176 -1.12178,-1.27999 -1.29461,-1.128 -1.46644,-0.94763 -1.6049,-0.75324 -1.71571,-0.54078 -1.79653,-0.31412 -1.84555,-0.0775 -1.86154,0.16477 -1.84392,0.40802 -1.79268,0.64762 -1.70847,0.87897 -1.59261,1.09758 -1.44696,1.2991 -1.27404,1.47951 -1.07687,1.63513 -0.859,1.76269 -0.55962,1.62286 -0.37141,1.67497 -0.17739,1.70406 0.0197,1.70949 0.22235,1.68934 0.42254,1.64285 0.6106,1.5737 0.78946,1.48178 0.95636,1.36832 1.10868,1.23488 1.24406,1.08333 1.36032,0.9158 1.4556,0.73472 1.5283,0.54272 1.57718,0.34262 1.60136,0.13737 1.5967,-0.0769 1.56684,-0.28692 1.51427,-0.48765 1.43759,-0.6811 1.33779,-0.86444 1.21615,-1.03487 1.23024,-1.3587 0.91791,-1.32528 0.74039,-1.44328 0.54895,-1.5391 0.34636,-1.61109 0.13561,-1.65796 -0.0802,-1.67881 -0.30434,-1.67491 -0.52414,-1.64249 -0.73499,-1.58242 -0.93719,-1.49706 -1.12819,-1.38742 -1.30522,-1.2549 -1.4655,-1.10126 -1.60654,-0.92859 -1.7261,-0.7393 -1.82219,-0.53605 -1.89323,-0.32175 -1.93791,-0.0995 -1.95537,0.12758 -1.94678,0.35652 -1.90913,0.58349 -1.84197,0.80471 -1.74796,1.01689 -1.62826,1.21678 -1.48453,1.40127 -1.31871,1.56746 -1.13314,1.71271 -0.93046,1.8347 -0.7136,1.93138 -0.48577,2.00113 -0.24712,2.04268 -0.007,2.05447 0.23195,2.03655 0.46126,1.98764 0.69218,1.91293 0.91308,1.81021 1.12057,1.68079 1.312,1.52575 1.48279,1.34881 1.63123,1.15192 1.75514,0.93762 1.85284,0.70738 1.92165,0.46686 1.96071,0.21885 1.96923,-0.033 1.94685,-0.28496 1.89285,-0.53313 1.80921,-0.7742 1.45948,-0.85235 1.57402,-1.19571 1.41093,-1.39511 1.22409,-1.57375 0.88476,-1.47313 0.72083,-1.57068 0.54709,-1.6509 0.36535,-1.71281 0.17757,-1.75561 -0.0143,-1.77871 -0.20812,-1.78175 -0.40185,-1.76454 -0.59339,-1.72715 -0.78128,-1.67004 -0.96768,-1.59456 -1.13965,-1.49847 -1.3012,-1.38466 -1.45051,-1.25426 -1.58589,-1.10858 -1.70583,-0.94895 -1.80894,-0.77686 -1.89378,-0.59434 -1.95928,-0.40339 -2.00459,-0.206 -2.02911,-0.004 -2.03243,0.19937 -2.01438,0.40294 -1.97503,0.60413 -1.91467,0.80069 -1.83387,0.99042 -1.73379,1.17043 -1.61439,1.33934 -1.47767,1.49537 -1.32501,1.63673 -1.15799,1.76179 -0.97832,1.86912 -0.7879,1.9574 -0.58872,2.0256 -0.38289,2.07281 -0.17264,2.09842 0.0398,2.10199 0.25036,2.09372 0.46053,2.057 0.66667,1.99632 0.86612,1.91414 1.05655,1.80964 1.23553,1.68261 1.40143,1.54055 1.55213,1.38127 1.68579,1.20646 1.80082,1.0179 1.89583,0.81763 1.96959,0.60772 2.02117,0.39045 2.0498,0.16816 2.05503,-0.0568 2.0366,-0.28181 1.9946,-0.50445 1.92945,-0.72201 1.84165,-0.93235 1.72898,-1.13694 1.59614,-1.328 1.44559,-1.50253 1.27707,-1.66104 1.09226,-1.80168 0.89306,-1.92278 0.68152,-2.02288 0.45987,-2.10073 0.23043,-2.15531 -0.004,-2.18585 -0.24194,-2.19182 -0.47979,-2.17301 -0.71532,-2.12938 -0.94594,-2.06125 -1.16909,-1.96916 -1.38236,-1.85389 -1.5835,-1.71628 -1.76994,-1.55782 -1.93948,-1.38011 -2.09014,-1.18493 -2.22011,-0.97432 -2.3278,-0.75047 -2.41189,-0.51573 -2.47127,-0.27207 -2.50486,-0.0212 -2.51209,0.23027 -2.49306,0.48203 -2.44781,0.73135 -2.37662,0.97548 -2.28007,1.21175 -2.15904,1.43751 -2.01464,1.65022 -1.84828,1.84747 -1.6616,2.02698 -1.06055,1.9031 -1.04533,2.37561 -0.79905,2.44171 -0.65199,2.31887 -0.40028,2.35568 -0.14655,2.36598 0.10638,2.34979 0.35582,2.30737 0.59904,2.2393 0.83345,2.14637 1.05654,2.02972 1.26593,1.89068 1.4594,1.73083 1.63492,1.55197 1.79064,1.35609 1.92497,1.14538 2.0365,0.92215 2.12412,0.68884 2.18694,0.448 2.22439,0.20224 2.2361,-0.0457 2.22206,-0.29335 2.18248,-0.53785 2.11783,-0.77667 2.02892,-1.00724 1.91674,-1.22713 1.78255,-1.43401 1.62787,-1.62568 1.45437,-1.80015 1.26399,-1.95558 1.05877,-2.09039 0.84097,-2.20314 0.61292,-2.29272 0.37708,-2.35821 0.136,-2.39896 -0.10776,-2.41461 -0.35159,-2.40502 -0.59289,-2.37037 -0.82911,-2.31106 -1.05773,-2.22778 -1.06691,-1.76557 -1.47195,-1.99646 -1.66229,-1.84626 -1.83569,-1.67753 -1.99037,-1.49219 -2.12395,-1.29172 -2.23919,-1.08062 -2.33283,-0.85848 -2.40282,-0.62757 -2.44822,-0.3909 -2.46855,-0.15103 -2.46366,0.0893 -2.43368,0.32751 -2.37935,0.55982 -2.30143,0.78478 -2.20074,1.0002 -2.07841,1.20384 -1.9358,1.39358 -1.77444,1.56737 -1.59605,1.72344 -1.40259,1.86012 -1.1961,1.97599 -0.9783,2.07001 -0.75076,2.1411 -0.51699,2.18793 -0.27149,2.20985 -0.024,2.20407 0.21229,2.17243 0.44376,2.11617 0.66792,2.03596 0.87481,1.92587 1.07798,1.80284 1.26875,1.66038 1.44366,1.49865 1.60079,1.31942 1.7384,1.12466 1.85498,0.91646 1.94922,0.69712 3.38193,0.5994 2.04257,0.0586 2.02548,-0.17786 1.9838,-0.41017 2.23463,-0.73076 1.82217,-0.84786 1.71205,-1.05254 1.58156,-1.2438 1.42429,-1.42869 1.24737,-1.59365 1.06303,-1.72939 0.8665,-1.84441 0.66007,-1.93761 0.46583,-2.02507 0.24824,-2.07687 0.0273,-2.10534 -0.19427,-2.11047 -0.41414,-2.0924 -0.62986,-2.05156 -0.85125,-1.98474 -1.05521,-1.89615 -1.243,-1.78868 -1.41742,-1.66279 -1.57664,-1.52009 -1.71908,-1.36238 -1.83975,-1.18969 -1.93706,-1.00421 -2.02606,-0.81568 -2.09439,-0.6198 -2.14276,-0.4133 -2.16972,-0.18686 -2.16781,0.0178 -2.14449,0.21976 -2.10025,0.41683 -2.70658,0.79001 -1.93373,0.7979 -1.83087,0.96658 -1.71147,1.12267 -1.57701,1.26459 -1.42717,1.3926 -1.44519,1.77257 -1.21022,1.88802 -0.96471,1.97308 -0.71256,2.02691 -0.45768,2.0492 -0.20398,2.04011 0.0447,2.00028 0.26823,1.95283 0.47976,1.88384 0.69319,1.76971 0.89256,1.63034 0.92544,1.25463 1.23995,1.27482 1.36834,1.07148 1.46992,0.85586 1.54363,0.63145 1.58884,0.40182 1.60525,0.17202 1.5939,-0.054 1.55609,-0.27479 1.49296,-0.4874 1.40588,-0.689 1.29656,-0.87701 1.16699,-1.04911 1.01931,-1.20321 0.85595,-1.33753 0.67942,-1.45061 0.49408,-1.54246 0.32753,-1.63203 0.12985,-1.68296 -0.0715,-1.71024 -0.27374,-1.71373 -0.47423,-1.69358 -0.67031,-1.65021 -0.85943,-1.58437 -1.03908,-1.49704 -1.20696,-1.38947 -1.36087,-1.26316 -1.4988,-1.11979 -1.61894,-0.96134 -1.7197,-0.78987 -1.79993,-0.60624 -1.8637,-0.34646 -1.89058,-0.14953 -1.8942,0.0489 -1.87459,0.24632 -1.83205,0.43998 -1.76716,0.62735 -1.68077,0.80591 -1.57406,0.9733 -1.44837,1.12723 -1.3054,1.26565 -1.14697,1.38661 -0.97518,1.48845 -0.79229,1.56969 -0.60071,1.62916 -0.40303,1.6659 -0.20188,1.67932 v 1.66906 l 0.19985,1.63512 0.39488,1.5778 0.58236,1.49772 0.75965,1.39584 0.92415,1.27341 1.07342,1.13199 1.20522,0.97346 1.31753,0.79989 1.40861,0.61367 1.47698,0.41734 1.52146,0.21366 1.54124,0.005 1.5358,-0.2042 1.50501,-0.41236 1.44911,-0.61594 1.3687,-0.8119 1.26474,-0.99733 1.13855,-1.16938 0.9918,-1.32538 0.82648,-1.46286 0.62749,-1.58645 0.42319,-1.67816 0.21475,-1.74172 -4.4e-4,-1.77916 -0.21913,-1.78978 -0.43784,-1.77335 -0.65234,-1.73038 -0.86048,-1.6615 -1.05933,-1.56749 -1.2459,-1.4496 -1.41736,-1.3094 -1.56242,-1.14606 -1.69399,-0.96748 -1.80965,-0.77469 -1.9015,-0.56776 -1.9677,-0.34948 -2.00673,-0.12364 -2.01779,0.10632 -2.00043,0.33696 -1.95474,0.56475 -1.88115,0.78617 -1.78057,0.99785 -1.65448,1.19629 -1.50496,1.3782 -1.33377,1.54132 -1.14326,1.68304 -0.93611,1.80109 -0.7153,1.89352 -0.48397,1.95875 -0.24552,1.99556 -0.003,2.0032 0.25722,1.97614 0.49577,1.91976 0.7251,1.83486 0.94148,1.72175 1.13293,1.57866 1.32038,1.41857 1.48734,1.23627 1.63115,1.03439 1.74954,0.81586 1.84056,0.58386 1.90269,0.34184 1.93482,0.0934 1.93633,-0.15781 1.90699,-0.40795 1.8471,-0.65327 1.7574,-0.89004 1.63906,-1.11465 1.49374,-1.32365 1.32305,-1.5141 1.129,-1.68305 0.91678,-1.82626 0.68805,-1.94288 0.44614,-2.031 0.19458,-2.08917 -0.038,-1.81355 -0.22882,-1.81365 -0.41905,-1.79379 -0.6073,-1.75383 -0.79147,-1.6938 -0.9677,-1.61501 -1.13513,-1.51798 -1.29184,-1.40368 -1.43607,-1.27331 -1.56619,-1.12822 -1.68067,-0.96996 -1.77822,-0.80018 -1.85765,-0.62073 -1.91804,-0.43355 -1.95861,-0.24063 -1.97885,-0.0441 -1.97845,0.15391 -1.9573,0.35122 -1.91557,0.54566 -1.85362,0.73509 -1.77203,0.9174 -1.67163,1.09053 -1.55345,1.25258 -1.41868,1.40169 -1.26876,1.53618 -1.10526,1.65451 -0.92992,1.75529 -0.85561,2.14263 -0.52837,1.8965 -0.32859,1.93686 -0.12516,1.95614 0.0797,1.95402 0.28416,1.9303 0.49486,1.8814 0.68966,1.8134 0.87673,1.72516 1.05392,1.61761 1.21927,1.49179 1.37088,1.34905 1.50707,1.19085 1.62624,1.01885 1.72706,0.83487 1.80828,0.64088 1.86896,0.43896 1.9083,0.23128 1.92582,0.0204 1.92128,-0.19163 1.89465,-0.40254 1.84614,-0.61008 1.77612,-0.81198 1.68526,-1.00604 1.57445,-1.19009 1.44477,-1.36209 1.29753,-1.52012 1.13424,-1.66238 0.95658,-1.78726 0.7664,-1.8933 0.56569,-1.97926 0.35658,-2.04407 0.14129,-2.08695 -0.0779,-2.10729 -0.2986,-2.10476 -0.51864,-2.07919 -0.73018,-2.02598 -0.93832,-1.95305 -1.14265,-1.86172 -1.33698,-1.74921 -1.51904,-1.61663 -1.68682,-1.4653 -1.83834,-1.29675 -1.97186,-1.11275 -2.08579,-0.9152 -2.17874,-0.70618 -2.24956,-0.48804 -2.29735,-0.26329 -2.32151,-0.0346 -2.3203,0.19493 -2.29439,0.42511 -2.24451,0.65196 -2.17106,0.87299 -2.07471,1.08575 -1.95637,1.2879 -1.81722,1.47715 -1.65863,1.65137 -1.48222,1.80856 -1.28981,1.94691 -1.08339,2.06481 -0.86515,2.16081 -0.63737,2.23376 -0.40251,2.2827 -0.16305,2.30695 0.0786,2.30605 0.31978,2.27977 0.54309,2.27507 0.84031,2.17308 1.05886,2.06366 1.26497,1.93184 1.45637,1.77903 1.6309,1.60685 1.78664,1.41716 1.92181,1.21199 2.03492,0.99357 2.12465,0.76429 2.18999,0.5266 2.23017,0.28312 2.24721,0.0475 2.24028,-0.18825 2.20548,-0.43358 2.14514,-0.67432 2.05944,-0.90855 1.94065,-1.14596 1.80529,-1.35514 1.64868,-1.54921 1.47251,-1.72599 1.28288,-1.88723 1.07579,-2.02677 0.85398,-2.14313 0.62094,-2.23578 0.37915,-2.3037 0.1313,-2.34605 -0.11997,-2.36229 -0.37186,-2.35221 -0.62166,-2.31582 -0.86659,-2.25347 -1.10397,-2.16578 -1.33118,-2.05362 -1.54569,-1.9182 -1.74892,-1.75703 -1.93052,-1.57842 -2.09229,-1.38197 -2.23278,-1.16949 -2.35043,-0.94328 -2.44387,-0.70579 -2.51207,-0.45961 -2.55419,-0.20742 -2.56975,0.0481 -2.55852,0.30399 -2.52055,0.55758 -2.45622,0.80605 -2.36661,1.047 -2.25387,1.27845 -2.11745,1.49702 -1.9587,1.70041 -1.49497,1.56072 -1.60046,2.03611 -1.38639,2.1816 -1.15811,2.30399 -0.91837,2.40167 -0.68524,2.46114 -0.43005,2.50951 -0.17085,2.53096 0.0895,2.52517 0.34812,2.49215 0.6022,2.43217 0.84894,2.34585 1.08559,2.23404 1.30955,2.09793 1.5183,1.93893 1.70954,1.75875 1.88109,1.5593 1.68462,1.13182 2.14022,1.14523 2.24516,0.90306 2.32429,0.65097 2.37668,0.39173 2.40171,0.12814 2.39904,-0.13688 2.36866,-0.40047 2.31082,-0.65969 2.22612,-0.91171 2.11542,-1.15375 1.66033,-1.13729 1.85249,-1.55722 1.41748,-1.44008 1.28376,-1.56895 1.13914,-1.68583 0.98469,-1.78978 0.8158,-1.88236 0.6369,-1.95954 0.45955,-2.01772 0.27768,-2.06026 0.0927,-2.0868 -0.13018,-2.5247 -0.31256,-2.09931 -0.49848,-2.07542 -0.68179,-2.03539 -0.8611,-1.97946 -1.03502,-1.90805 -1.20224,-1.82165 -1.36143,-1.72091 -1.5114,-1.60655 -1.65097,-1.47942 -1.77904,-1.34048 -1.89464,-1.19073 -1.99684,-1.03131 -2.08484,-0.86343 -2.15834,-0.68698 -2.21638,-0.50263 -2.2572,-0.317 -2.28171,-0.12836 -2.28969,0.0618 -2.28104,0.2522 -2.25581,0.44122 -2.21416,0.62748 -2.15638,0.80955 -2.08288,0.98603 -1.9942,1.15558 -1.891,1.31688 -1.77402,1.4687 -1.64414,1.60986 -1.50233,1.73927 -1.35338,1.85932 -1.1924,1.96425 -1.0221,2.05427 -0.84439,2.12919 -0.66059,2.1884 -0.4593,2.23283 -0.26633,2.25706 -0.0729,2.26425 0.12048,2.25456 0.31091,2.22725 0.48915,2.17914 0.6744,2.12113 0.85409,2.0471 1.0268,1.95762 1.19122,1.85332 1.34608,1.73496 1.49017,1.60344 1.62237,1.4597 1.74167,1.30486 1.84711,1.14003 1.93786,0.96648 2.01323,0.78551 2.07258,0.59848 2.11544,0.4068 2.1415,0.21023 2.14996,0.0109 2.14094,-0.18582 2.11479,-0.38112 2.07168,-0.57352 2.01192,-0.7616 1.93593,-0.94386 1.84428,-1.11894 1.73764,-1.28549 1.61677,-1.44222 1.48263,-1.58791 1.33616,-1.72146 1.17851,-1.8418 1.01082,-1.94803 0.8344,-2.03927 0.76741,-2.537 0.4342,-2.17467 0.23913,-2.21534 0.041,-2.23886 -0.15855,-2.24502 -0.36752,-2.23212 -0.56865,-2.20088 -0.76288,-2.15281 -0.95229,-2.08792 -1.13542,-2.00672 -1.5897,-2.2915 -1.50653,-1.78815 -1.66152,-1.66036 -1.8049,-1.51941 -1.93555,-1.36635 -2.05247,-1.20231 -2.15471,-1.02853 -2.24149,-0.84633 -2.31209,-0.65706 -2.36597,-0.46218 -2.40268,-0.26315 -2.42189,-0.0615 -2.42344,0.14129 -2.40728,0.34362 -2.3735,0.54395 -2.32144,0.74312 -2.25211,0.93622 -2.16671,1.12114 -2.06545,1.29804 -1.94905,1.46558 -1.81838,1.62245 -1.67442,1.76746 -1.51825,1.89947 -1.35102,2.01744 -1.17402,2.12049 -0.98856,2.20777 -0.79606,2.27863 -0.59796,2.33247 -0.39576,2.36888 -0.19102,2.38755 0.0147,2.3883 0.21516,2.3801 0.41849,2.34651 0.61836,2.29518 0.8132,2.22656 1.0015,2.14113 1.18755,2.03542 1.36137,1.91428 1.52015,1.7812 1.66683,1.63471 1.80024,1.47593 1.91754,1.30589 2.01732,1.12616 2.10654,0.93849 2.17912,0.74359 2.23446,0.54298 2.27214,0.33815 2.29183,0.13067 2.29336,-0.0779 2.27667,-0.28593 2.24188,-0.49188 2.18923,-0.69413 2.11908,-0.89119 2.03195,-1.08149 1.92848,-1.2636 1.80943,-1.43611 1.67568,-1.59771 1.52824,-1.7471 1.36616,-1.88457 1.19344,-2.00649 1.01164,-2.11224 0.82121,-2.20176 0.62356,-2.27439 0.42021,-2.32952 0.2127,-2.36672 0.003,-2.38568 -0.2085,-2.38625 -0.41896,-2.36838 -0.62721,-2.33219 -0.83163,-2.27794 -1.03067,-2.20601 -1.22279,-2.11695 -1.40655,-2.01138 -1.5805,-1.89012 -1.74332,-1.75405 -1.88865,-1.6033 -2.02426,-1.44107 -2.14762,-1.26775 -2.25549,-1.08418 -2.34702,-0.89171 -2.42149,-0.69183 -2.47982,-0.47673 -2.51696,-0.26513 -2.53532,-0.0522 -2.53506,0.1616 -2.51614,0.37469 -2.47949,0.58313 -2.42829,0.77893 -2.35589,0.98068 -2.2661,1.17549 -2.15961,1.36188 -2.03717,1.5384 -1.89972,1.70372 -1.74827,1.85653 -1.58396,1.99566 -1.40801,2.12004 -1.22177,2.22869 -1.02662,2.32075 -0.82404,2.39552 -0.61557,2.45237 -0.40279,2.49088 -0.1873,2.5107 0.0293,2.51167 0.24521,2.49374 0.4612,2.45639 0.67199,2.40036 0.87612,2.32644 1.07316,2.23494 1.26157,2.12655 1.43992,2.00207 1.60685,1.86244 1.76105,1.70869 1.90135,1.54199 2.02665,1.36358 2.13599,1.17481 2.22851,0.9771 2.30348,0.77197 2.36032,0.56093 2.39856,0.34563 2.41791,0.12766 2.41817,-0.0913 2.40078,-0.30461 2.36622,-0.51235 2.31082,-0.72469 2.23707,-0.93158 2.14547,-1.13143 2.0367,-1.32271 1.90774,-1.50839 1.76315,-1.68066 1.60697,-1.83629 1.43775,-1.97781 1.25673,-2.10412 1.06529,-2.21422 0.86855,-2.31126 0.66133,-2.388 0.44778,-2.44613 0.22981,-2.48548 0.009,-2.5057 -0.21276,-2.50662 -0.43399,-2.48821 -0.65295,-2.45056 -0.86796,-2.39396 -1.07739,-2.31878 -1.27963,-2.22559 -1.47312,-2.11506 -1.6564,-1.98801 -1.82804,-1.84537 -1.98672,-1.68823 -2.13123,-1.51774 -2.26051,-1.33505 -2.37479,-1.13869 -2.46992,-0.93597 -2.5471,-0.72562 -2.60569,-0.50921 -2.64525,-0.28841 -2.66543,-0.0649 -2.66607,0.15969 -2.64714,0.38359 -2.60876,0.6051 -2.5512,0.82255 -2.47487,1.03427 -2.38034,1.23865 -2.26831,1.43411 -2.13959,1.61917 -1.99515,1.7924 -1.8361,1.95248 -1.66631,2.10051 -1.48282,2.23212 -1.28796,2.34692 -1.08369,2.44436 -0.87152,2.52369 -0.64768,2.58515 -0.41889,2.62594 -0.19281,2.64574 0.0342,2.64575 0.2605,2.62593 0.48084,2.5847 0.69417,2.52333 0.90841,2.44665 1.11531,2.35148 1.31327,2.23855 1.50077,2.10867 1.67636,1.96281 1.8387,1.80206 1.98652,1.6276 2.11866,1.44077 2.2341,1.24295 2.33194,1.03562 2.41139,0.82038 2.47181,0.59882 2.51274,0.37262 2.53378,0.14296 2.53437,-0.0906 2.5146,-0.32023 2.47487,-0.54744 2.41544,-0.77051 2.33674,-0.98772 2.23932,-1.19745 2.1239,-1.39803 1.99136,-1.58799 1.84264,-1.7658 1.67886,-1.93016 1.50125,-2.07973 1.31114,-2.21341 1.10995,-2.33012 0.89919,-2.42898 0.68882,-2.50171 0.46644,-2.56167 0.23689,-2.60419 0.004,-2.6266 -0.23066,-2.6286 -0.47515,-2.60806 -0.70596,-2.56744 -0.9325,-2.50686 -1.15304,-2.42676 -1.36366,-2.33455 -1.56611,-2.22355 -1.75976,-2.09015 -1.94124,-1.9403 -2.10912,-1.7751 -2.26214,-1.5958 -2.39911,-1.4037 -2.51894,-1.20029 -2.62071,-0.98704 -2.70361,-0.7656 -2.76699,-0.53761 -2.81033,-0.3048 -2.83326,-0.0689 -2.83547,0.16944 -2.81636,0.40905 -2.77674,0.64319 -2.71685,0.8731 -2.63713,1.09706 -2.53815,1.31335 -2.41094,1.51622 -2.26312,1.70523 -2.10578,1.88349 -1.93361,2.04719 -1.74792,2.19511 -1.55018,2.32615 -1.3419,2.43931 -1.13146,2.53887 -0.90891,2.61646 -0.67919,2.67318 -0.44549,2.7096 -0.2096,2.72545 0.0267,2.72062 0.26157,2.69516 0.49324,2.64928 0.71995,2.58336 0.94173,2.49702 1.15799,2.38954 1.35892,2.26601 1.5482,2.12546 1.72438,1.96897 1.88614,1.79777 2.03223,1.61317 2.16159,1.41658 2.27323,1.20953 2.36618,0.9936 2.43723,0.77014 2.49299,0.54186 2.52862,0.30959 2.54384,0.0751 2.53856,-0.15978 2.51201,-0.39757 2.46302,-0.63579 2.39501,-0.8606 2.30771,-1.07855 2.20178,-1.28794 2.07808,-1.48722 1.94311,-1.66082 1.78993,-1.83174 1.6204,-1.99334 1.43747,-2.13956 1.24255,-2.26926 1.03714,-2.38149 0.82278,-2.47542 0.60114,-2.55032 0.37082,-2.60614 0.13402,-2.64137 -0.0993,-2.65497 -0.33277,-2.64821 -0.56461,-2.62121 -0.79308,-2.57417 -1.01642,-2.50749 -1.23296,-2.42171 -1.43889,-2.32152 -1.63035,-2.21431 -1.81816,-2.07751 -1.99327,-1.92497 -2.15438,-1.75786 -2.30194,-1.57498 -2.43668,-1.37238 -2.5467,-1.16848 -2.63843,-0.95599 -2.71124,-0.73657 -2.76394,-0.51182 -2.79689,-0.28358 -2.81249,-0.0536 -2.80798,0.17669 -2.78342,0.40554 -2.73903,0.63121 -2.67518,0.85197 -2.59237,1.06617 -2.48716,1.27904 -2.36621,1.47609 -2.22963,1.65997 -2.07765,1.83105 -1.91149,1.98799 -1.7324,2.12967 -1.54181,2.25501 -1.34831,2.35252 -1.145384,2.43603 -0.930086,2.50946 -0.709291,2.56374 -0.483419,2.59855 -0.241569,2.61307 -0.01465,2.60522 0.210503,2.57756 0.432164,2.53031 0.640752,2.47593 0.846743,2.39947 1.049117,2.29864 1.24182,2.18054 1.42339,2.04606 1.59242,1.89625 1.74767,1.73228 1.89393,1.54659 2.01686,1.35668 2.12234,1.15731 2.20992,0.9496 2.27896,0.73513 2.32897,0.51559 2.35884,0.29259 2.37068,0.0679 2.36464,-0.15689 2.339,-0.38032 2.29212,-0.60727 2.22284,-0.83332 2.13728,-1.04124 2.03402,-1.24077 1.9173,-1.42042 1.78888,-1.5817 1.63985,-1.74913 1.47685,-1.90291 1.30114,-2.04189 1.11407,-2.16505 0.91384,-2.27288 0.69971,-2.36411 0.48674,-2.43265 0.26882,-2.48237 0.0476,-2.51295 -0.17525,-2.52418 -0.39269,-2.52218 -0.60357,-2.5087 -0.82175,-2.46507 -1.05225,-2.43633 -1.33097,-2.39793 -1.51727,-2.27584 -1.69099,-2.13861 -1.85087,-1.98748 -1.99584,-1.82384 -2.12492,-1.64911 -2.24063,-1.46134 -2.33788,-1.26955 -2.41688,-1.07179 -2.47768,-0.86907 -2.51999,-0.66307 -2.5437,-0.45542 -2.54883,-0.24782 -2.53559,-0.0419 -2.50395,0.16388 -2.45446,0.36176 -2.3883,0.55185 -2.30622,0.73408 -2.20907,0.90713 -2.0978,1.06981 -1.973513,1.22095 -1.837324,1.35958 -1.688033,1.48715 -1.528811,1.59981 -1.362674,1.69577 -1.406515,2.13931 -1.148805,2.22661 -0.885383,2.28522 -0.619393,2.31493 -0.37736,2.33022 -0.128705,2.3145 0.126803,2.26415 0.373531,2.1873 0.608766,2.08521 0.829968,1.95949 1.03667,1.81075 1.224138,1.64196 1.387525,1.45842 1.529447,1.2606 1.648766,1.05092 1.748278,0.82515 1.820094,0.59523 1.86627,0.36134 1.88693,0.12589 1.88232,-0.10834 1.85293,-0.33866 2.08075,-0.61652 1.70237,-0.7519 1.60674,-0.9551 1.49105,-1.14532 1.35698,-1.32061 1.20638,-1.47921 1.03883,-1.62207 0.86454,-1.73945 0.67839,-1.83918 0.48142,-1.91969 0.28107,-1.97685 0.0779,-2.01194 -0.12574,-2.025 -0.32741,-2.01632 -0.61382,-2.28402 -0.72444,-1.89373 -0.90718,-1.82874 -1.08033,-1.74549 -1.4639,-1.90865 -1.41764,-1.50645 -1.82521,-1.58321 -1.97631,-1.383 -2.09963,-1.16825 -2.19388,-0.9427 -2.8822,-0.95044 -2.29019,-0.42598 -2.2936,-0.18762 -2.264376,0.041 -2.207446,0.26136 -2.124386,0.4701 -2.012614,0.67455 -1.878315,0.85473 -1.726691,1.00937 -1.559151,1.14171 -1.746772,1.59047 -0.966302,1.09871 -1.199005,1.78536 -0.816484,1.63525 -0.560488,1.63125 -0.311819,1.5911 -0.0612,1.3294 0.138786,1.41653 0.337434,1.28009 0.510843,1.11935 0.649555,0.90109 1.438135,1.11908 0.889909,0.40608 0.924535,0.19523 0.929566,-0.0218 0.901979,-0.24566 0.839854,-0.43877 0.838736,-0.70505 0.819955,-1.02477 0.618628,-1.45412 0.29925,-1.21073 0.10052,-1.3029 -0.108978,-1.36118 -0.349012,-1.39138 -0.552724,-1.36537 -1.346045,-2.48741 -1.054294,-1.34456 -0.987856,-1.21973 -0.01063,-0.2754 -0.587331,-0.32654 -0.245009,-0.0162 -0.418121,-0.0445 -0.321015,-0.4682 -0.443594,-0.27388 -0.561033,-0.10131 -0.714955,0.1141 -0.770821,0.37061 -0.774327,0.63828 -0.723129,0.90622 -0.617144,1.16316 -0.4248,1.26182 -0.257518,1.43132 -0.05852,1.56952 0.166395,1.67052 0.410359,1.72946 0.587407,1.56932 0.796686,1.54548 1.002643,1.48653 1.199477,1.39296 1.381481,1.26629 1.543206,1.10896 1.679624,0.92434 1.786277,0.71657 1.859411,0.4906 1.8961,0.25195 1.894345,0.007 1.853152,-0.23915 1.580899,-0.41405 1.490509,-0.59482 1.374619,-0.76309 1.23509,-0.91518 1.0743,-1.04768 0.89517,-1.15756 0.70099,-1.24224 0.49542,-1.29956 0.28249,-1.32798 0.0663,-1.3265 -0.14868,-1.29477 -0.35825,-1.233 -0.55802,-1.14211 -0.74389,-1.02358 -0.91191,-0.87951 -1.0585,-0.71256 -1.18045,-0.52588 -1.275027,-0.32309 -1.340037,-0.10846 -1.374466,0.10954 -1.378995,0.33016 -1.353172,0.55101 -1.296808,0.76794 -1.210282,0.97675 -1.094577,1.17328 -0.95127,1.35339 -0.782535,1.51322 -0.591123,1.64914 -0.380315,1.75787 -0.153885,1.83664 0.08397,1.88317 0.328717,1.89577 0.575548,1.87342 0.8195,1.81577 0.911087,1.51405 1.083451,1.42046 1.244535,1.30514 1.391614,1.16954 1.522132,1.01534 1.633749,0.84462 1.724389,0.65974 1.79226,0.46332 1.83593,0.25822 1.85429,0.0475 1.84666,-0.16575 1.81271,-0.37817 1.75257,-0.5865 1.66681,-0.78743 1.5564,-0.97772 1.42269,-1.1543 1.26747,-1.31427 1.09282,-1.45493 0.90121,-1.57393 0.69537,-1.66913 0.47829,-1.73883 0.25322,-1.78168 0.0235,-1.79671 -0.20742,-1.78342 -0.43596,-1.74173 -0.65862,-1.67202 -0.87189,-1.57506 -1.07245,-1.45212 -1.2571,-1.30484 -1.42285,-1.13528 -1.567,-0.94584 -1.68718,-0.73925 -1.78131,-0.51856 -1.84776,-0.28703 -1.88527,-0.0481 -1.89303,0.19457 -1.8707,0.43733 -1.818373,0.67647 -1.736612,0.90828 -1.626435,1.12917 -1.489304,1.33569 -1.327101,1.52454 -1.142101,1.69274 -0.936947,1.83755 -0.714601,1.95658 -0.478306,2.04783 -0.231543,2.10972 0.02203,2.14105 0.278639,2.14113 0.534418,2.10973 0.6582,1.75964 0.837543,1.6943 1.00968,1.61028 1.172662,1.50837 1.324633,1.3896 1.463846,1.25515 1.588692,1.10642 1.697702,0.94495 1.789578,0.77243 1.86321,0.59068 1.91768,0.40166 1.95224,0.20738 1.96642,0.01 1.95993,-0.18852 1.9327,-0.38583 1.88491,-0.57982 1.81694,-0.76836 1.72942,-0.94933 1.62315,-1.12073 1.49922,-1.2806 1.35881,-1.42714 1.20338,-1.55866 1.03452,-1.67361 0.85398,-1.77063 0.66363,-1.84854 0.46549,-1.90637 0.26165,-1.94331 0.0543,-1.95883 -0.15432,-1.95262 -0.36198,-1.92455 -0.5664,-1.87476 -0.76535,-1.80364 -0.95661,-1.71179 -1.13806,-1.60001 -1.30765,-1.46937 -1.46345,-1.32111 -1.60364,-1.15669 -1.72661,-0.97773 -1.83085,-0.78606 -1.91507,-0.58358 -1.97821,-0.37241 -2.01936,-0.15473 -2.03789,0.0672 -2.0334,0.29105 -2.00571,0.51441 -1.95487,0.73492 -1.881226,0.95018 -1.785321,1.15785 -1.667962,1.35565 -1.530181,1.54136 -1.373236,1.71289 -1.1986,1.86829 -1.007946,2.00572 -0.803131,2.12355 -0.586179,2.22034 -0.359264,2.29483 -0.124684,2.346 0.115157,2.37307 0.357774,2.37548 0.600629,2.35298 0.841149,2.30549 1.076765,2.23329 1.304922,2.13685 1.523123,2.01694 1.728937,1.87456 1.920046,1.711 2.094248,1.52771 2.2495,1.32647 2.38393,1.10918 2.49585,0.87798 2.58382,0.63518 2.64659,0.38322 2.6832,0.1247 2.69291,-0.1377 2.6753,-0.40122 2.63019,-0.66302 2.13761,-0.74931 2.07164,-0.92389 1.99034,-1.09298 1.50287,-1.01408 0.87917,-0.90444 1.23606,-1.60222 1.07288,-1.70634 0.90174,-1.79529 0.72407,-1.86847 0.54131,-1.92544 0.35499,-1.96586 0.1666,-1.98959 -0.0223,-1.99656 -0.21032,-1.98687 -0.39775,-1.96056 -0.58155,-1.91765 -0.92888,-2.223 -1.16965,-2.11387 -1.39611,-1.98101 -1.6059,-1.82624 -1.79693,-1.65162 -1.96736,-1.45939 -2.11557,-1.25197 -2.24029,-1.03191 -2.34359,-0.79521 -2.4178,-0.55536 -2.4656,-0.31121 -2.48699,-0.0654 -2.48213,0.17914 -2.45151,0.4197 -2.39726,0.65059 -2.33869,0.83612 -2.24083,1.05002 -2.121699,1.25055 -1.983004,1.43559 -1.826656,1.60327 -1.654654,1.75201 -1.463337,1.88482 -1.268324,1.98886 -1.065503,2.07091 -0.857289,2.13055 -0.646103,2.16756 -0.434339,2.18201 -0.22325,2.17424 -0.0065,2.14361 0.196159,2.09013 0.390087,2.01574 0.573148,1.92169 0.743394,1.80947 1.034302,1.93816 1.203365,1.73833 1.367365,1.52623 1.502299,1.29737 1.607741,1.05334 1.682257,0.79536 1.718991,0.54514 1.72542,0.29536 1.70233,0.0496 1.64994,-0.19481 1.56607,-0.43704 1.4551,-0.6565 1.31911,-0.85836 1.16173,-1.04107 0.99565,-1.21288 0.80942,-1.3551 0.60885,-1.47228 0.39117,-1.56594 0.15446,-1.63345 -0.0702,-1.66327 -0.29431,-1.66505 -0.51442,-1.63935 -0.72205,-1.58422 -0.85521,-1.47281 -0.91196,-1.18264 -1.272,-1.24793 -2.05921,-1.6325 -1.60173,-0.97184 -1.713,-0.8021 -1.80141,-0.62186 -1.87397,-0.41465 -1.911711,-0.21272 -2.194309,-0.005 -2.169909,0.24457 -2.101479,0.4841 -1.764886,0.62107 -1.882125,0.99856 -2.819456,1.83418 -1.528225,1.30824 -1.339424,1.43366 -1.123557,1.53754 -0.889459,1.60758 -0.671595,1.63192 -0.498288,1.82624 -0.261765,1.82458 -0.03205,1.40749 0.274566,1.67886 0.648395,2.21679 0.620189,1.19473 0.752916,0.99526 0.769792,0.67444 0.919838,0.5342 0.933772,0.30613 0.911576,0.0845 1.74045,-0.1577 0.694182,-0.44133 0.610902,-0.67762 0.434412,-0.83609 0.237662,-0.9575 0.0052,-0.84456 -0.209497,-1.0894 -0.428035,-1.07703 -0.636082,-1.02981 -1.207491,-1.54324 -0.815439,-0.40514 -1.131552,-0.19395 -1.128464,-0.1198 -0.319878,-0.93852 -0.458444,-0.70439 -0.585611,-0.52148 -0.67572,-0.31227 -0.723221,-0.0845 -0.724235,0.15281 -0.676775,0.39008 -0.580885,0.61722 -0.438719,0.82421 -0.254492,1.00157 -0.04115,1.0324 0.162207,1.11348 0.380577,1.15664 0.606927,1.15914 0.833729,1.11955 1.053223,1.03785 1.257671,0.91546 1.439628,0.75525 1.59221,0.56142 1.534255,0.31616 1.599815,0.12026 1.633402,-0.0868 1.633232,-0.29975 1.598394,-0.51309 1.528891,-0.72109 1.425661,-0.91813 1.290564,-1.09872 1.126357,-1.2577 0.936629,-1.39039 0.725726,-1.49271 0.498638,-1.56127 0.2609,-1.59359 0.0184,-1.58802 -0.22267,-1.54391 -0.45613,-1.46164 -0.675794,-1.34257 -0.769338,-1.0655 -0.90996,-0.92213 -1.029986,-0.75927 -1.126677,-0.57992 -1.197731,-0.38747 -1.241339,-0.18562 -1.256229,0.0217 -1.241704,0.23035 -1.197656,0.43615 -1.124581,0.63488 -1.023578,0.82243 -0.896331,0.99486 -0.745079,1.14848 -0.572585,1.27993 -0.382076,1.38629 -0.17719,1.46504 0.0381,1.5143 0.259553,1.53265 0.482761,1.51938 0.703223,1.47433 0.916436,1.39804 1.118,1.29166 1.30369,1.15698 1.469561,0.99636 1.612022,0.81274 1.727914,0.60954 1.81458,0.39059 1.869924,0.16013 1.892459,-0.0773 1.881341,-0.31719 1.8364,-0.5546 1.75814,-0.78481 1.64773,-1.00313 1.50704,-1.20507 1.33849,-1.38645 1.14516,-1.5434 0.93061,-1.67257 0.69889,-1.77108 0.45439,-1.83668 0.19059,-1.63377 -0.005,-1.63376 -0.20025,-1.6098 -0.39175,-1.562 -0.57674,-1.49091 -0.75234,-1.39744 -0.91586,-1.2828 -1.06471,-1.14857 -1.19652,-0.99661 -1.30919,-0.82913 -1.40087,-0.64851 -1.47002,-0.45741 -1.51543,-0.25862 -1.53627,-0.0551 -1.532024,0.15007 -1.50261,0.35384 -1.44829,0.5531 -1.369723,0.7448 -1.267938,0.926 -1.144323,1.09387 -1.000607,1.24579 -0.838836,1.37937 -0.661344,1.49244 -0.470717,1.58316 -0.26976,1.65003 -0.06145,1.69187 0.151107,1.70788 0.364714,1.69766 0.576146,1.66119 0.782187,1.59887 0.97968,1.51145 1.165586,1.40012 1.337016,1.26639 1.491283,1.11215 1.625947,0.93961 1.73885,0.75124 1.828146,0.5498 1.89233,0.33825 1.9303,0.11972 1.9413,-0.10256 1.92499,-0.32523 1.88146,-0.54495 1.8112,-0.7584 1.71509,-0.9623 1.59444,-1.15356 1.4509,-1.32921 1.28651,-1.48649 1.1036,-1.62297 0.90484,-1.73645 0.69308,-1.82511 0.47147,-1.88744 0.24325,-1.9224 0.0118,-1.92927 -0.21933,-1.90782 -0.44677,-1.85821 -0.66707,-1.78101 -0.87685,-1.67724 -1.07294,-1.54833 -1.2523,-1.39605 -1.41216,-1.22257 -1.55001,-1.0304 -1.66369,-0.82229 -1.75133,-0.60131 -1.8115,-0.37069 -1.84317,-0.13384 -1.84568,0.10572 -1.81887,0.34441 -1.76298,0.57863 -1.67869,0.80487 -1.567137,1.01968 -1.429837,1.21979 -1.268724,1.40212 -1.086087,1.56383 -0.884555,1.70242 -0.667051,1.81567 -0.436753,1.90177 -0.197044,1.95929 0.04853,1.98721 0.296325,1.98496 0.542641,1.95244 0.78378,1.88998 1.016109,1.79834 1.236107,1.67877 1.440419,1.53291 1.62591,1.3628 1.789707,1.17089 1.92927,0.95991 2.04236,0.73294 2.12718,0.49329 2.18233,0.24449 2.2068,-0.01 2.20011,-0.26579 2.16219,-0.51968 2.09348,-0.76765 1.99481,-1.00596 1.86756,-1.231 1.47908,-1.22171 1.35019,-1.36243 1.20699,-1.48918 1.05103,-1.60048 0.88393,-1.69506 0.70751,-1.77178 0.52364,-1.82975 0.33431,-1.86824 0.14159,-1.88674 -0.0524,-1.88497 -0.24562,-1.86286 -0.43583,-1.82056 -0.621,-1.75843 -0.79902,-1.6771 -0.96793,-1.57736 -1.12584,-1.46022 -1.27095,-1.32691 -1.40159,-1.17881 -1.5163,-1.01749 -1.61372,-0.84465 -1.69269,-0.66216 -1.75229,-0.47196 -1.79177,-0.27614 -1.81057,-0.0768 -1.80845,0.1239 -1.78528,0.32371 -1.74126,0.52048 -1.67676,0.712 -1.5924,0.89615 -1.48903,1.07089 -1.36768,1.23424 -1.22961,1.38436 -1.076259,1.51954 -0.909254,1.63824 -0.730354,1.73905 -0.541479,1.82083 -0.344653,1.88255 -0.142005,1.92348 0.06427,1.94307 0.271912,1.94098 0.478657,1.91718 0.68223,1.87181 0.88038,1.80528 1.070909,1.71824 1.251696,1.61153 1.42069,1.48625 1.57602,1.34371 1.7159,1.18538 1.83872,1.01293 1.94308,0.82821 2.02773,0.63319 2.09168,0.42995 2.13412,0.22072 2.15449,0.008 2.15249,-0.20662 2.12804,-0.42007 2.0813,-0.63021 2.0127,-0.83475 1.9229,-1.03139 1.81279,-1.21795 1.68352,-1.39234 1.53639,-1.55258 1.37298,-1.69685 1.19499,-1.8235 1.00433,-1.93105 0.80305,-2.01826 0.59329,-2.08406 0.37735,-2.12764 0.15756,-2.14844 -0.0636,-2.14612 -0.28388,-2.12061 -0.5007,-2.07208 -0.7117,-2.001 -0.91453,-1.90802 -1.10694,-1.79409 -1.28675,-1.66036 -1.45195,-1.50822 -1.60064,-1.33928 -1.73112,-1.15531 -1.84188,-0.95828 -1.93161,-0.75029 -1.99924,-0.53358 -2.04392,-0.31053 -2.06509,-0.0835 -2.06237,0.14493 -2.03573,0.37235 -1.98535,0.59621 -1.91167,0.81403 -1.81541,1.02341 -1.69754,1.22199 -1.55926,1.40755 -1.40199,1.57799 -1.2274,1.73138 -1.03734,1.86595 -0.83381,1.98016 -0.61901,2.07266 -0.39526,2.14232 -0.16497,2.18831 0.0693,2.21002 0.30514,2.20709 0.53981,2.17947 0.77078,2.12737 0.99549,2.05123 1.21145,1.95183 1.41624,1.83012 1.60757,1.68739 1.78329,1.52511 1.94137,1.34497 2.08004,1.14889 2.19767,0.93897 2.29289,0.71746 2.36457,0.48673 2.4118,0.2493 2.434,0.008 2.4308,-0.23526 2.40213,-0.47711 2.34822,-0.71509 2.26955,-0.94659 2.16689,-1.16903 2.04129,-1.37992 1.89401,-1.57692 1.7266,-1.75778 1.54083,-1.92045 1.33865,-2.06309 1.12224,-2.18402 0.89391,-2.28184 0.65614,-2.3554 0.4115,-2.40376 0.16265,-2.42631 -0.0877,-2.4227 -0.33676,-2.39287 -0.58183,-2.33704 -0.82016,-2.25571 -1.04914,-2.1497 -1.26618,-2.02007 -1.46888,-1.86815 -1.65492,-1.69554 -1.82222,-1.50403 -1.96884,-1.29568 -2.09312,-1.07271 -2.19356,-0.83752 -2.26902,-0.59264 -2.31853,-0.34075 -2.34147,-0.0846 -2.33748,0.17309 -2.3065,0.42941 -2.24878,0.68154 -2.16483,0.92671 -2.05551,1.16219 -1.9219,1.38536 -1.76539,1.5937 -1.58762,1.7849 -1.39046,1.95674 -1.176,2.10731 -0.94656,2.23483 -0.70459,2.33785 -0.45272,2.41512 -0.19366,2.4657 0.0697,2.48894 0.3346,2.48449 0.59802,2.45228 0.85709,2.39258 1.10895,2.30594 1.10937,1.83659 1.27014,1.74378 1.42241,1.63715 1.56503,1.51746 1.69685,1.38557 1.81683,1.24248 1.92404,1.08923 2.01761,0.92697 2.09677,0.75691 2.1609,0.58032 2.20944,0.39854 2.24199,0.21294 2.25824,0.0249 2.25803,-0.16407 2.2413,-0.35261 2.20813,-0.53925 2.15875,-0.72256 2.09345,-0.90113 2.01271,-1.07357 1.91709,-1.23856 1.80727,-1.39482 1.68408,-1.54111 1.54838,-1.6763 1.4012,-1.79932 1.24361,-1.90919 1.07681,-2.00506 0.90201,-2.0861 0.72055,-2.15172 0.5338,-2.20131 0.34316,-2.23449 0.15006,-2.25093 -0.044,-2.25048 -0.23756,-2.23308 -0.42913,-2.19882 -0.61727,-2.14792 -0.80049,-2.08071 -0.97741,-1.99768 -1.14665,-1.89938 -1.3069,-1.78656 -1.45689,-1.66002 -1.59549,-1.52069 -1.72156,-1.3696 -1.83415,-1.20788 -1.93233,-1.03673 -2.01532,-0.85743 -2.08246,-0.67133 -2.13317,-0.47983 -2.16703,-0.28438 -2.18375,-0.0865 -2.18313,0.11241 -2.16516,0.31074 -2.1299,0.50699 -2.07759,0.69967 -2.00859,0.88729 -1.92338,1.0684 -1.82255,1.24162 -1.70686,1.40557 -1.57714,1.55901 -1.43434,1.70072 -1.27953,1.82959 -1.11385,1.94461 -0.93855,2.04484 -0.75493,2.12951 -0.5644,2.19791 -0.36836,2.24949 -0.16833,2.28379 0.0342,2.30053 0.23765,2.29952 0.44051,2.28073 0.64121,2.24426 0.83819,2.19034 1.02996,2.11933 1.21505,2.03174 1.39198,1.9282 1.55943,1.80946 1.71607,1.67637 1.86067,1.52995 1.9921,1.37124 2.10933,1.20145 2.21142,1.02185 2.29755,0.83379 2.36702,0.63867 2.41927,0.43797 2.45385,0.23322 2.47043,0.026 2.46887,-0.18221 2.44913,-0.38972 2.41129,-0.59499 2.35564,-0.79641 2.28251,-0.99248 2.19244,-1.18165 2.0861,-1.36248 1.96421,-1.53354 1.8277,-1.69354 1.67757,-1.8412 1.51494,-1.97537 1.341,-2.095 1.15707,-2.19914 0.96451,-2.28693 0.76481,-2.35771 0.55943,-2.41085 0.34996,-2.44595 0.10419,-1.96399 -0.14809,-2.43097 -0.3594,-2.40882 -0.56798,-2.36832 -0.77224,-2.3098 -0.97062,-2.2337 -1.16162,-2.14061 -1.34377,-2.03121 -1.5157,-1.90636 -1.67608,-1.767 -1.82372,-1.61419 -1.95746,-1.4491 -2.07632,-1.27296 -2.17937,-1.08715 -2.26583,-0.89307 -2.33505,-0.69217 -2.38649,-0.48602 -2.41976,-0.27617 -2.43463,-0.0642 -2.43097,0.14823 -2.40879,0.35955 -2.36828,0.56813 -2.30976,0.77239 -2.23364,0.97076 -2.14053,1.16175 -2.03113,1.3439 -1.90627,1.51581 -1.76689,1.6762 -1.61408,1.82381 -1.44897,1.95756 -1.27284,2.0764 -1.08701,2.17943 -0.89293,2.26589 -0.69203,2.33509 -0.48587,2.38652 -0.27601,2.41978 -0.0641,2.43464 0.14838,2.43095 0.3597,2.40877 0.56828,2.36825 0.77253,2.3097 0.9709,2.23359 1.16189,2.14046 1.34402,2.03104 1.51593,1.90618 1.67631,1.76679 1.82391,1.61396 1.95765,1.44885 2.07648,1.2727 2.1795,1.08688 2.26594,0.89278 2.33514,0.69189 2.38655,0.48572 2.4198,0.27587 2.43464,0.0639 2.43094,-0.14854 2.40874,-0.35985 2.36822,-0.56843 2.30966,-0.77267 2.23352,-0.97104 2.14039,-1.16202 2.03096,-1.34415 1.90608,-1.51605 1.76668,-1.67642 1.61385,-1.82401 1.44873,-1.95774 1.27258,-2.07656 1.08674,-2.17957 0.89264,-2.266 0.69174,-2.33517 0.48557,-2.38658 0.27572,-2.41982 0.068,-1.94742 -20.75909,17.75938 -1.71467,-4.44101 -2.26187,-9.86506 -1.31585,-4.07144 -0.65565,-2.70528 6.35468,-2.34825 1.00365,-0.44111 7.20126,-2.6468 1.00235,-0.44462 7.20269,-2.64308 1.00087,-0.44861 7.20433,-2.63883 0.99918,-0.45317 7.20622,-2.63396 0.99723,-0.45846 1.44331,-0.50424 1.66373,-7.36802 2.89519,-9.21958 -0.27888,2.30376 -2.61631,6.91582 -1.66373,7.36802 2.04692,0.0269 1.37977,-0.12149 3.6606,0.0591 4.77906,-0.47514 3.01928,-0.70485 9.30607,-0.84069 3.49472,0.20743 5.37292,-0.37548 3.4672,0.20329 1.93844,-0.11475 2.88733,0.15354 2.97528,-0.05 0.24201,-7.08916 1.0424,-10.9517 -0.64469,2.14967 -0.1785,7.53664 -0.21921,1.26539 -0.24201,7.08916 1.48286,0.79012 4.38823,1.81053 5.94952,3.15019 1.58844,6.01186 3.19092,8.95506 2.16466,1.0518 6.20224,2.63366 2.77989,1.51251 1.37292,0.77177 2.76475,1.52631 1.58922,1.0631 3.89602,2.07478 4.02816,1.56524 4.20996,0.86428 2.97018,0.11046 1.24335,0.74008 4.02391,1.58163 3.10973,0.64821 2.82292,0.15195 2.00509,-0.15255 2.25292,0.92339 4.24411,1.03965 4.27933,0.35835 2.65081,-0.2614 1.61666,0.84908 4.23286,1.25745 4.28144,0.31728 1.6783,-0.24144 1.65227,-0.10309 0.96057,0.47415 4.2405,1.10969 4.28049,0.3357 1.47263,-0.23791 1.49864,-0.14538 9.30079,-0.0308 -0.1144,-1.45335 -0.34039,-1.41754 -0.55799,-1.34684 -0.76184,-1.24293 -0.94694,-1.10843 -1.10871,-0.94662 -1.24316,-0.76149 -1.34699,-0.55759 -1.41765,-0.33998 -1.45338,-0.11398 -1.45331,0.11483 -1.41745,0.3408 -1.34667,0.55838 -1.24272,0.76221 -1.10815,0.94726 -0.9463,1.10898 -0.76112,1.24338 -0.55721,1.34716 -0.33956,1.41774 -0.11356,1.45342 0.11525,1.45328 0.34122,1.41735 0.55877,1.3465 0.76257,1.2425 0.94758,1.10788 1.10926,0.94597 1.2436,0.76076 1.34732,0.55681 1.41784,0.33916 1.45345,0.11313 1.45325,-0.11567 1.41725,-0.34163 1.34634,-0.55916 1.24228,-0.76294 1.1076,-0.9479 0.94565,-1.10953 0.7604,-1.24383 0.55642,-1.34748 0.33874,-1.41794 0.11271,-1.45348 -0.28833,-1.62371 -0.53808,-1.68156 -0.71094,-1.50896 -0.93638,-1.4428 -1.04488,-1.17664 -1.09078,-0.91227 -1.25272,-0.75703 -1.00687,-0.32491 -1.67897,-0.043 -1.62856,0.17722 -1.53849,0.38028 -1.53489,0.61805 -1.34938,0.79219 -1.13658,0.92164 -0.90698,1.00278 -0.71675,1.12042 -0.44671,1.09599 -0.22425,1.16647 0.0112,1.09698 0.21832,0.87434 0.37395,0.66096 0.52788,0.48102 0.61139,0.25123 0.64399,0.0338 0.68741,-0.18311 0.68826,-0.42025 0.63795,-0.66811 0.49195,-0.8289 0.35612,-1.02375 0.17167,-1.19622 -0.0437,-1.20682 -0.25899,-1.28286 -0.49126,-1.3175 -0.73246,-1.30728 -0.86584,-1.11445 -0.93538,-0.93931 -1.13087,-0.82498 -1.1589,-0.58528 -1.25186,-0.37329 -1.17572,-0.10968 -1.05161,0.12685 -0.88889,0.32016 -0.69821,0.46898 -0.48377,0.56981 -0.82499,1.22496 -0.71227,1.06178 -0.49775,1.11468 -0.27671,1.12238 -0.0541,1.17178 0.1853,1.07157 0.39618,0.92064 0.56785,0.7266 0.63518,0.46958 0.6981,0.25845 0.71575,0.0391 0.68737,-0.17884 0.61423,-0.38589 0.49954,-0.57298 0.34831,-0.73189 0.16787,-0.85542 -0.0296,-1.01676 -0.25819,-1.06848 -0.49675,-1.07816 -0.73925,-1.04257 -0.89466,-0.88922 -1.08854,-0.7787 -1.26495,-0.62897 -1.41552,-0.44167 -1.40053,-0.21133 -1.46546,-0.004 -1.49244,0.22012 -1.47722,0.45306 -1.29177,0.61508 -1.20701,0.80292 -1.08763,0.97865 -0.93516,1.1357 -0.75241,1.26766 -0.54345,1.36855 -0.31359,1.43304 -0.0735,1.31125 0.1301,1.29846 0.33409,1.25231 0.53292,1.17229 0.72095,1.05883 0.89252,0.91333 1.04217,0.73816 1.16479,0.53658 1.25572,0.3128 1.31102,0.0718 1.18047,-0.14794 1.16454,-0.35187 1.11838,-0.55616 1.04199,-0.75553 0.93595,-0.94552 0.80139,-1.12174 0.48116,-1.03607 0.40161,-1.77236 0.17737,-1.77705 -0.0412,-1.74961 -0.24966,-1.69172 -0.44652,-1.6048 -0.6251,-1.49128 -0.88595,-1.51537 -1.04583,-1.31912 -1.28203,-1.21424 -1.23186,-0.85284 -1.27635,-0.60882 -1.41961,-0.41336 -1.38332,-0.15857 -1.28427,0.09 -1.14211,0.31368 -0.96292,0.50128 -0.75931,0.64128 -0.53245,0.73635 -0.2935,0.78953 -0.047,0.8079 -0.0459,0.65956 -0.5076,1.3022 -0.25046,1.28701 -0.004,1.21819 0.22183,1.09938 0.41635,0.93642 0.57154,0.737 0.68093,0.51031 0.74016,0.26668 0.68585,0.0251 0.65153,-0.18132 0.57867,-0.37663 0.51061,-0.60719 0.39407,-0.83658 0.20606,-0.99463 -0.007,-1.12611 -0.24666,-1.22701 -0.46286,-1.18983 -0.70757,-1.20734 -0.9658,-1.18094 -1.11721,-1.01608 -1.33564,-0.90828 -1.39344,-0.6943 -1.54709,-0.53428 -1.6769,-0.34224 -1.77577,-0.1215 -1.6518,0.0991 -1.67011,0.30996 -1.65398,0.52854 -1.6012,0.74901 -1.51061,0.96511 -1.38219,1.17019 -1.09094,1.19817 -0.93369,1.32981 -0.7538,1.43952 -0.55516,1.52339 -0.34153,1.57834 0.0268,0.55387 0.8963,1.0162 1.05493,0.8592 1.19121,0.67971 1.29279,0.48814 1.35925,0.29074 1.36701,0.0943 1.37664,-0.10458 1.52475,-0.36019 1.45979,-0.58402 1.38547,-0.76747 1.25631,-0.94877 1.0962,-1.11216 0.92087,-1.22718 0.71866,-1.30506 0.56757,-1.50567 0.31796,-1.52695 0.0605,-1.31397 -0.27904,-1.07542 -0.5325,-1.0944 -0.78502,-1.06011 -0.93135,-0.89708 -1.11638,-0.7868 -1.27731,-0.64276 -1.40802,-0.47009 -1.50354,-0.275 -1.56008,-0.0646 -1.57534,0.15345 -1.55037,0.36578 -1.63231,0.60885 -1.54,0.81922 -1.41269,1.02104 -1.15073,1.10126 -0.98131,1.24228 -0.7816,1.35967 -0.5135,1.31179 -0.30708,1.35411 -0.087,1.36254 0.14091,1.33295 0.36982,1.26232 0.52307,1.0404 0.69222,0.9174 0.84488,0.76423 0.97545,0.583 1.0786,0.37693 1.14949,0.15023 1.18399,-0.0919 1.04936,-0.29281 1.01591,-0.49397 0.95228,-0.69292 0.85843,-0.88509 0.73497,-1.06578 0.5833,-1.2304 0.40553,-1.37448 0.20444,-1.49388 -0.0165,-1.58481 -0.25309,-1.64404 -0.50087,-1.6689 -0.71862,-1.53246 -0.99637,-1.63335 -1.15084,-1.43978 -1.27342,-1.23015 -1.36508,-1.00566 -1.41939,-0.77849 -1.43983,-0.55076 -1.42809,-0.328 -1.4035,-0.12941 -1.33136,0.087 -1.36365,0.31548 -1.1998,0.51841 -1.01731,0.69008 -0.81347,0.82681 -0.59322,0.92662 -0.36938,0.98348 -0.14592,1.00163 0.0782,1.18641 0.29341,0.90669 0.48736,0.82054 0.73408,0.78136 0.89386,0.61209 1.0169,0.42012 1.09814,0.21347 1.13208,0.007 1.23408,-0.22367 1.12606,-0.4451 1.97347,-1.18898 0.40854,-0.60121 0.23888,-0.7625 0.0406,-0.87857 -0.17498,-0.94495 -0.39602,-0.95989 -0.6108,-0.92433 -0.80829,-0.84184 -0.97876,-0.71829 -1.20434,-0.59743 -1.30997,-0.38627 -1.35972,-0.15939 -1.44908,0.068 -1.49249,0.29061 -1.4107,0.50491 -1.21753,0.66601 -1.07572,0.84839 -0.83256,0.94344 -0.58562,0.98424 -0.37079,1.05439 -0.12813,0.99645 0.0911,0.97399 0.31316,0.90255 0.47452,0.72052 0.63689,0.57774 0.77355,0.39586 0.87381,0.17873 0.84348,-0.0455 0.85143,-0.25462 0.81954,-0.46688 0.747,-0.67462 0.63452,-0.87 0.48434,-1.04533 0.30012,-1.19333 0.087,-1.30744 -0.14874,-1.38209 -0.34813,-1.27155 -0.55687,-1.26251 -0.76527,-1.21838 -0.96743,-1.13914 -1.15742,-1.02573 -1.32947,-0.88011 -1.47818,-0.7052 -1.59859,-0.50486 -1.68643,-0.28376 -1.73818,-0.0473 -1.75126,0.19862 -1.53513,0.38556 -1.48498,0.58 -1.40645,0.76793 -1.30045,0.94516 -1.1685,1.10768 -1.01273,1.25166 -0.83582,1.37358 -0.64096,1.47039 -0.43182,1.5394 -0.21242,1.57856 0.0129,1.58635 0.23956,1.5619 0.46292,1.50502 0.67824,1.41619 0.88091,1.29659 1.06647,1.14806 1.23076,0.9731 1.36994,0.77482 1.48062,0.55687 1.56002,0.32341 1.60597,0.0789 1.61691,-0.17173 1.59205,-0.42354 1.34438,-0.57418 1.27412,-0.75813 1.18094,-0.93321 1.06593,-1.09661 0.93057,-1.24555 0.77672,-1.37756 0.60646,-1.49031 0.42225,-1.58179 0.22675,-1.6503 0.0228,-1.69442 -0.18651,-1.71317 -0.39803,-1.7059 -0.60854,-1.67237 -0.81474,-1.61274 -1.01343,-1.52758 -1.20143,-1.41787 -1.37571,-1.28498 -1.53341,-1.13062 -1.6719,-0.95692 -1.78881,-0.76626 -1.88207,-0.56136 -1.94996,-0.34517 -1.99111,-0.12084 -2.00457,0.10828 -1.98979,0.33879 -1.94663,0.56717 -1.87541,0.78991 -1.77689,1.00358 -1.65221,1.20479 -1.50296,1.39034 -1.33112,1.55724 -1.13902,1.70272 -0.92935,1.82431 -0.70507,1.9199 -0.4694,1.98772 -0.22579,2.02642 0.0192,1.74232 0.3531,1.98086 0.58811,1.90476 0.81181,1.80089 1.02097,1.67085 1.21262,1.51657 1.38396,1.3404 1.53253,1.14495 1.65622,0.93311 1.75325,0.70803 1.82227,0.47299 1.8623,0.23135 1.87271,-0.0141 1.8531,-0.25917 1.80375,-0.49988 1.72547,-0.73272 1.61943,-0.95422 1.48723,-1.16107 1.3309,-1.35021 1.15346,-1.51834 0.95746,-1.66353 0.74552,-1.784 0.52072,-1.87809 0.28633,-1.94442 0.0458,-1.98212 -0.19751,-1.99063 -0.43999,-1.96989 -0.67815,-1.92018 -0.90933,-1.84191 -1.12983,-1.73598 -1.33578,-1.60405 -1.52413,-1.44813 -1.6921,-1.27054 -1.83717,-1.0739 -1.95714,-0.86135 -2.05007,-0.63702 -2.11526,-0.40346 -2.1519,-0.16386 -2.1595,0.0783 -2.13793,0.31963 -2.08751,0.55656 -2.00896,0.78569 -1.90339,1.00378 -1.77156,1.20848 -1.61537,1.39607 -1.43735,1.56325 -1.24015,1.70751 -1.02669,1.82663 -0.80014,1.9188 -0.56501,1.98248 -0.3244,2.01723 -0.0811,2.02273 0.16127,1.99886 0.39934,1.94589 0.62963,1.86453 0.84882,1.75585 1.05384,1.62122 1.24248,1.46145 1.4108,1.27922 1.55593,1.07733 1.67559,0.85875 1.7679,0.62666 1.83129,0.38509 1.865,0.13844 1.86893,-0.11108 1.84289,-0.35994 1.78709,-0.60458 1.70221,-0.84151 1.58925,-1.06729 1.4496,-1.27876 1.28392,-1.4737 1.09489,-1.64796 0.88544,-1.7985 0.65856,-1.92291 0.37307,-1.72598 0.20328,-2.07806 -0.0524,-2.11851 -0.31186,-2.12828 -0.47408,-1.8085 -0.66286,-1.77338 -0.84762,-1.71901 -1.0264,-1.64584 -1.01382,-1.28191 -1.64615,-1.42199 -1.49937,-1.02687 -1.60842,-0.86569 -1.69941,-0.69487 -1.77153,-0.51642 -1.82418,-0.33241 -1.85913,-0.13314 -2.1811,0.092 -2.16161,0.34534 -2.11194,0.59221 -2.03334,0.82907 -1.92754,1.05256 -1.79658,1.25962 -1.64291,1.44751 -1.46907,1.61389 -1.27674,1.75761 -1.06962,1.87569 -0.85145,1.96641 -0.62575,2.02881 -0.3962,2.06241 -0.16788,2.06713 0.056,2.04411 0.30444,2.26867 0.41686,1.64042 0.67648,1.82331 0.8563,1.70298 1.02021,1.56178 1.16488,1.40205 1.28741,1.22703 1.38628,1.03972 1.46016,0.84359 1.50792,0.6442 1.74994,0.48987 1.74348,0.22855 1.70169,-0.0266 1.62539,-0.27367 1.32583,-0.44854 1.37456,-0.72262 1.20202,-0.91117 1.00645,-1.07136 0.79237,-1.20052 0.73765,-1.60074 0.36645,-1.33701 0.12916,-1.36885 -0.10827,-1.36686 -0.29654,-1.16699 -0.57566,-1.26298 -0.7777,-1.16165 -0.96537,-1.03373 -1.13339,-0.88132 -1.27631,-0.70875 -1.77426,-0.67872 -1.53442,-0.3543 -1.40853,-0.10861 -1.64308,0.11921 -1.6284,0.33111 -1.58419,0.53511 -1.51232,0.72713 -1.58635,1.02282 -1.44018,1.2091 -1.27321,1.36675 -1.09069,1.49429 -0.89778,1.59114 -0.76313,1.83465 -0.47068,1.67317 -0.29555,1.87318 -0.0638,1.8416 0.15457,1.77885 0.35689,1.68851 0.54141,1.5738 0.78596,1.57291 0.86317,1.24261 1.00022,0.76744 1.0227,0.50343 1.00504,0.24993 0.86743,0.0106 0.64353,-0.34682 0.58303,-0.56623 0.41916,-0.72698 0.2324,-0.85359 0.0297,-0.94316 -0.18177,-0.99411 -0.39466,-1.00621 -0.54092,-1.21401 -0.1769,-1.19292 -0.40131,-1.13724 -0.61096,-1.03974 -0.79817,-0.90404 -0.95602,-0.7351 -1.07875,-0.53913 -1.1618,-0.32335 -1.20217,-0.0957 -1.19832,0.1355 -1.15045,0.3617 -1.06027,0.57461 -0.93112,0.7664 -0.76775,0.93 -0.57615,1.05944 -0.36338,1.14991 -0.13724,1.19813 0.0939,1.20231 0.32166,1.16227 0.53756,1.07953 0.73371,0.95709 0.90287,0.79948 1.03886,0.61248 1.13665,0.40296 1.19266,0.17863 1.20483,-0.0523 1.17271,-0.28124 1.09749,-0.49987 0.98192,-0.70013 0.83025,-0.87466 0.64807,-1.01703 0.44207,-1.12202 0.21981,-1.18577 0.0239,-0.54831 v 0"
     clip-path="url(#pfcbbbb6b55)"
     transform="translate(-73.082727,-127.0017)" />
  <path
     inkscape:connector-curvature="0"
     id="path1555"
     style="fill:none;stroke:#000000;stroke-width:0.74999999;stroke-linecap:square;stroke-linejoin:round;stroke-miterlimit:4;stroke-dasharray:none"
     d="m 202.32751,219.8136 28.85059,1.49075 9.65276,-8.79386 0.79121,-0.66306 0.84328,-0.59542 0.88959,-0.52371 0.92983,-0.44841 0.96369,-0.37006 0.99098,-0.28916 1.01148,-0.2063 1.02506,-0.12202 1.03164,-0.0369 1.03117,0.0485 1.02363,0.1335 1.00911,0.21761 28.69934,7.4431 75.45375,3.89879 3.76026,-0.54277 3.70379,-0.84626 3.62285,-1.14417 3.518,-1.43452 3.38993,-1.7154 3.23946,-1.98495 3.06762,-2.24141 2.87552,-2.48305 2.66444,-2.70831 2.43576,-2.91569 2.19101,-3.10381 1.93178,-3.27145 1.65981,-3.41749 1.37688,-3.54096 1.08485,-3.64105 0.78566,-3.71711 0.48129,-3.76863 0.17374,-3.79526 -0.13496,-3.79683 -0.44276,-3.77335 -0.74765,-3.72494 -1.0476,-3.65195 -1.34064,-3.55484 -1.62481,-3.43426 -1.89826,-3.29101 -2.15919,-3.12604 -2.40585,-2.94042 -2.63663,-2.73538 -2.85001,-2.5123 -3.04456,-2.27263 -3.21902,-2.01794 -3.37222,-1.74994 -3.50316,-1.47038 -3.61098,-1.18112 -3.69495,-0.88405 -3.75452,-0.58116 -3.78931,-0.27442 -80.88634,9.35723 -25.99718,11.29784 -0.97629,0.37647 -1.0044,0.29337 -1.02544,0.20823 -1.03927,0.12162 -1.0458,0.0342 -1.045,-0.0536 -1.03684,-0.14088 -1.02139,-0.22721 -0.99878,-0.31196 -0.96915,-0.3945 -0.9327,-0.47429 -0.8897,-0.55073 -6.99313,-4.74534 -19.96669,9.98335 -0.9214,0.41497 -0.95194,0.33908 -0.97626,0.26098 -0.99416,0.18115 -1.00555,0.10015 -1.01037,0.0185 -1.00854,-0.0633 -1.00013,-0.14467 -0.98514,-0.22509 -0.96371,-0.30403 -0.93596,-0.38099 -0.90208,-0.45544 -0.86229,-0.52692 -0.81683,-0.59494 -0.76605,-0.65905 -0.71022,-0.71886 -3.55713,-3.90457 -115.181603,18.11077 v 8.87358 l 15.72688,15.72688 -15.72688,15.72688 v 8.87358 l 74.551763,3.85218 56.62768,-35.84787 15.9582,8.36558 0.73429,18.00299 -19.37715,12.26661"
     clip-path="url(#pfcbbbb6b55)"
     transform="translate(-73.082727,-127.0017)" />
  <path
     inkscape:connector-curvature="0"
     id="path1558"
     style="fill:none;stroke:#008000;stroke-width:0.74999999;stroke-linecap:square;stroke-linejoin:round;stroke-miterlimit:4;stroke-dasharray:none"
     d="m 368.52416,199.00467 9.8421,-30.9029 -21.84164,-23.97496 -90.76407,19.84638 -4.37427,13.73462 9.7074,10.65554 8.14005,-1.7799 4.8541,5.32769 8.14005,-1.7799 4.85409,5.32768 8.14005,-1.77989 4.8541,5.32768 8.14005,-1.7799 4.00469,4.39541 8.14005,-1.7799 5.70351,6.25996 32.45974,-7.09761"
     clip-path="url(#pfcbbbb6b55)"
     transform="translate(-73.082727,-127.0017)" />
</svg>
